<svg xmlns="http://www.w3.org/2000/svg" aria-labelledby="audit-empty-title" viewBox="0 0 480 360"><title id="audit-empty-title">A timeline of activity entries with timestamps</title><style>.surface{fill:#fff}.ink{fill:#1b2230}.green-500{fill:#32982d}.blue-500{fill:#2961cd}.yellow-500{fill:#e6bd30}@media (prefers-color-scheme:dark){.surface{fill:#2a3142}.ink{fill:#eceef2}}</style><ellipse cx="240" cy="320" rx="170" ry="12" style="fill:#f5f8f4"/><path stroke="#c9d2dd" stroke-dasharray="4 4" stroke-width="2" d="M120 76v220"/><g transform="translate(120 80)"><circle r="9" class="green-500"/><circle r="3" fill="#fff"/></g><g transform="translate(140 60)"><rect width="240" height="46" class="surface" rx="6"/><rect width="6" height="46" rx="2" style="fill:#d5edd3"/><rect width="120" height="5" x="18" y="12" class="ink" opacity=".75" rx="2.5"/><rect width="180" height="3" x="18" y="24" class="ink" opacity=".4" rx="1.5"/><rect width="100" height="3" x="18" y="32" class="ink" opacity=".3" rx="1.5"/><rect width="32" height="14" x="200" y="14" class="green-500" rx="7"/><circle cx="208" cy="21" r="2" fill="#fff"/></g><g transform="translate(120 152)"><circle r="9" class="blue-500"/><circle r="3" fill="#fff"/></g><g transform="translate(140 132)"><rect width="240" height="46" class="surface" rx="6"/><rect width="6" height="46" rx="2" style="fill:#d5e0f4"/><rect width="100" height="5" x="18" y="12" class="ink" opacity=".75" rx="2.5"/><rect width="160" height="3" x="18" y="24" class="ink" opacity=".4" rx="1.5"/><rect width="120" height="3" x="18" y="32" class="ink" opacity=".3" rx="1.5"/><rect width="32" height="14" x="200" y="14" class="blue-500" rx="7"/><circle cx="208" cy="21" r="2" fill="#fff"/></g><g transform="translate(120 224)"><circle r="9" class="yellow-500"/><circle r="3" fill="#fff"/></g><g transform="translate(140 204)"><rect width="240" height="46" class="surface" rx="6"/><rect width="6" height="46" rx="2" style="fill:#fbefc0"/><rect width="140" height="5" x="18" y="12" class="ink" opacity=".75" rx="2.5"/><rect width="170" height="3" x="18" y="24" class="ink" opacity=".4" rx="1.5"/><rect width="90" height="3" x="18" y="32" class="ink" opacity=".3" rx="1.5"/><rect width="32" height="14" x="200" y="14" class="yellow-500" rx="7"/><circle cx="208" cy="21" r="2" fill="#fff"/></g><circle r="6" opacity=".7" style="fill:#c9d2dd" transform="translate(120 290)"/><g class="ink" opacity=".35"><circle cx="60" cy="120" r="3"/><circle cx="420" cy="240" r="2"/><circle cx="80" cy="280" r="2"/></g></svg>