<svg xmlns="http://www.w3.org/2000/svg" aria-labelledby="certificates-empty-title" viewBox="0 0 480 360"><title id="certificates-empty-title">A certificate with a gold seal and ribbon</title><style>.ink{fill:#1b2230}.green-500{fill:#32982d}.yellow-600{fill:#c49e1f}.ivory{fill:#faf6e8}@media (prefers-color-scheme:dark){.ink{fill:#eceef2}.ivory{fill:#dcd4b4}}</style><ellipse cx="240" cy="320" rx="170" ry="12" style="fill:#f5f8f4"/><g transform="translate(96 88)"><rect width="288" height="200" rx="6" style="fill:#fff"/><rect width="276" height="188" x="6" y="6" class="ivory" rx="4"/><rect width="276" height="10" x="6" y="6" class="green-500" rx="4"/><rect width="276" height="10" x="6" y="184" class="green-500" rx="4"/><rect width="216" height="6" x="36" y="40" class="ink" opacity=".75" rx="3"/><rect width="160" height="3" x="64" y="60" class="ink" opacity=".4" rx="1.5"/><rect width="120" height="4" x="36" y="84" class="ink" opacity=".55" rx="2"/><rect width="180" height="3" x="36" y="96" class="ink" opacity=".35" rx="1.5"/><rect width="150" height="3" x="36" y="106" class="ink" opacity=".35" rx="1.5"/><rect width="60" height="3" x="36" y="146" opacity=".7" rx="1.5" style="fill:#2961cd"/><rect width="46" height="2" x="36" y="156" class="ink" opacity=".4" rx="1"/><rect width="60" height="3" x="172" y="146" class="green-500" opacity=".7" rx="1.5"/><rect width="46" height="2" x="172" y="156" class="ink" opacity=".4" rx="1"/></g><g transform="translate(330 196)"><path d="M-2 0h16l-2 40-8-10-8 10z" class="green-500"/><path d="M-2 0h16L6 16z" style="fill:#287a24"/><circle cx="6" cy="-6" r="22" style="fill:#e6bd30"/><circle cx="6" cy="-6" r="22" fill="none" stroke="#c49e1f" stroke-width="2" class="yellow-600" opacity=".4"/><circle cx="6" cy="-6" r="14" class="yellow-600"/><path d="m-1-10 5 8 9-1-6 7 2 8-8-4-8 4 2-8-6-6 8-1Z" class="ivory"/></g><g class="ink" opacity=".35"><circle cx="80" cy="120" r="3"/><circle cx="400" cy="100" r="2"/><circle cx="100" cy="270" r="2"/></g></svg>