<svg xmlns="http://www.w3.org/2000/svg" aria-labelledby="courses-empty-title" viewBox="0 0 480 360"><title id="courses-empty-title">A stack of books with a bookmark</title><style>.ink{fill:#1b2230}.green-500{fill:#32982d}.green-300{fill:#95c691}.blue-500{fill:#2961cd}.yellow-500{fill:#e6bd30}.ivory{fill:#f8f4e6}@media (prefers-color-scheme:dark){.ink{fill:#eceef2}.ivory{fill:#e0dbc9}}</style><ellipse cx="240" cy="318" rx="170" ry="12" style="fill:#f5f8f4"/><g transform="translate(120 240)"><rect width="240" height="36" class="green-500" rx="4"/><rect width="240" height="6" y="30" rx="3" style="fill:#287a24"/><rect width="50" height="4" x="14" y="10" class="ivory" rx="2"/><rect width="38" height="3" x="14" y="20" class="ivory" rx="1.5"/><circle cx="220" cy="18" r="6" class="yellow-500"/></g><g transform="translate(150 196)"><rect width="200" height="44" class="blue-500" rx="4"/><rect width="200" height="6" y="38" rx="3" style="fill:#1f4da6"/><rect width="60" height="4" x="14" y="14" class="ivory" rx="2"/><rect width="44" height="3" x="14" y="24" class="ivory" rx="1.5"/><rect width="14" height="34" x="160" y="-4" class="green-300" rx="1"/></g><g transform="translate(140 150)"><rect width="180" height="46" class="yellow-500" rx="4"/><rect width="180" height="6" y="40" rx="3" style="fill:#c49e1f"/><rect width="56" height="4" x="14" y="14" class="ink" opacity=".7" rx="2"/><rect width="40" height="3" x="14" y="24" class="ink" opacity=".5" rx="1.5"/><circle cx="156" cy="22" r="8" class="blue-500"/><circle cx="156" cy="22" r="3" class="ivory"/></g><g transform="translate(170 100)"><rect width="130" height="44" class="green-300" rx="4"/><rect width="130" height="6" y="38" class="green-500" rx="3"/><rect width="44" height="4" x="14" y="12" class="ivory" rx="2"/><rect width="34" height="3" x="14" y="22" class="ivory" rx="1.5"/></g><g class="ink" opacity=".4"><circle cx="380" cy="120" r="3"/><circle cx="100" cy="160" r="2"/><circle cx="370" cy="200" r="2"/></g></svg>