<svg xmlns="http://www.w3.org/2000/svg" viewBox="0 0 440 330">
  
  <ellipse cx="220" cy="298" rx="182" ry="30" fill="#4E9E2A"></ellipse>
  <path d="M38 298a182 30 0 0 0 364 0Z" fill="#2E7D14"></path>
  <path d="M300 160 280 256M360 160 380 256" stroke="#1C5D00" stroke-width="7" stroke-linecap="round"></path>
  <rect x="286" y="62" width="118" height="92" rx="9" fill="#EBD9C0"></rect>
  <rect x="286" y="62" width="118" height="92" rx="9" fill="none" stroke="#155ED0" stroke-width="6"></rect>
  <rect x="300" y="78" width="56" height="7" rx="3.5" fill="#155ED0"></rect>
  <rect x="300" y="92" width="40" height="7" rx="3.5" fill="#9bb4d8"></rect>
  <rect x="300" y="124" width="11" height="20" rx="3" fill="#3C8D0F"></rect>
  <rect x="316" y="116" width="11" height="28" rx="3" fill="#F9C718"></rect>
  <rect x="332" y="108" width="11" height="36" rx="3" fill="#D40000"></rect>
  <rect x="348" y="120" width="11" height="24" rx="3" fill="#155ED0"></rect>
  <rect x="286" y="156" width="118" height="8" rx="4" fill="#1C5D00"></rect>
  <g>
    <path d="M236 282q-5-60 22-62 27 2 22 62Z" fill="#003792"></path>
    <rect x="240" y="194" width="38" height="36" rx="14" fill="#3C8D0F"></rect>
    <rect x="236" y="200" width="11" height="34" rx="5.5" fill="#3C8D0F"></rect>
    <circle cx="241" cy="236" r="6" fill="#C2855A"></circle>
    <path d="M276 206q12 0 22-6" stroke="#3C8D0F" stroke-width="12" fill="none" stroke-linecap="round"></path>
    <circle cx="300" cy="198" r="6" fill="#C2855A"></circle>
    <rect x="253" y="184" width="10" height="11" fill="#C2855A"></rect>
    <ellipse class="co-hair" cx="258" cy="170" rx="20" ry="19" fill="#241a14"></ellipse>
    <circle cx="258" cy="172" r="16" fill="#C2855A"></circle>
    <path class="co-hair" d="M242 168q3-15 16-15 13 0 16 15-5-6-16-6-11 0-16 6Z" fill="#241a14"></path>
    <circle cx="252" cy="173" r="2.1" fill="#242424"></circle>
    <circle cx="265" cy="173" r="2.1" fill="#242424"></circle>
    <path d="M252 179q6 4 12 0" stroke="#242424" stroke-width="2.2" fill="none" stroke-linecap="round"></path>
    <circle cx="247" cy="178" r="2.8" fill="#D40000" opacity="0.18"></circle>
    <circle cx="270" cy="178" r="2.8" fill="#D40000" opacity="0.18"></circle>
  </g>
  <g>
    <rect x="74" y="238" width="40" height="11" rx="5" fill="#1C5D00"></rect>
    <rect x="80" y="248" width="8" height="22" rx="4" fill="#1C5D00"></rect>
    <rect x="100" y="248" width="8" height="22" rx="4" fill="#1C5D00"></rect>
    <path d="M76 244q-4-46 18-48 22 2 18 48Z" fill="#155ED0"></path>
    <rect x="86" y="180" width="16" height="14" fill="#C2855A"></rect>
    <ellipse class="co-hair" cx="94" cy="176" rx="18" ry="17" fill="#2B221C"></ellipse>
  </g>
  <g>
    <rect x="146" y="240" width="40" height="11" rx="5" fill="#1C5D00"></rect>
    <rect x="152" y="250" width="8" height="22" rx="4" fill="#1C5D00"></rect>
    <rect x="172" y="250" width="8" height="22" rx="4" fill="#1C5D00"></rect>
    <path d="M148 246q-4-46 18-48 22 2 18 48Z" fill="#D40000"></path>
    <rect x="158" y="182" width="16" height="14" fill="#9A6440"></rect>
    <ellipse class="co-hair" cx="166" cy="178" rx="18" ry="17" fill="#4A3526"></ellipse>
  </g>
</svg>