<svg xmlns="http://www.w3.org/2000/svg" viewBox="0 0 440 330">
  <ellipse cx="220" cy="298" rx="150" ry="28" fill="#C66A3A"></ellipse>
  <path d="M70 298a150 28 0 0 0 300 0Z" fill="#9E4E22"></path>
  <g transform="translate(196,162) rotate(-5)">
    <rect x="-70" y="-92" width="140" height="184" rx="10" fill="#EBD9C0"></rect>
    <rect x="-70" y="-92" width="140" height="30" rx="10" fill="#155ED0"></rect>
    <rect x="-70" y="-72" width="140" height="10" fill="#155ED0"></rect>
    <g transform="translate(-40,-18)">
      <circle cx="0" cy="0" r="12" fill="#C2855A"></circle>
      <path d="M-16 26q0-18 16-18 16 0 16 18Z" fill="#3C8D0F"></path>
      <line x1="24" y1="0" x2="52" y2="0" stroke="#c9b894" stroke-width="4" stroke-linecap="round"></line>
      <line x1="24" y1="16" x2="44" y2="16" stroke="#c9b894" stroke-width="4" stroke-linecap="round"></line>
    </g>
    <g transform="translate(-40,42)">
      <circle cx="0" cy="0" r="12" fill="#C2855A"></circle>
      <path d="M-16 26q0-18 16-18 16 0 16 18Z" fill="#C66A3A"></path>
      <line x1="24" y1="0" x2="52" y2="0" stroke="#c9b894" stroke-width="4" stroke-linecap="round"></line>
      <line x1="24" y1="16" x2="44" y2="16" stroke="#c9b894" stroke-width="4" stroke-linecap="round"></line>
    </g>
  </g>
  <g transform="translate(300,196)">
    <circle cx="0" cy="0" r="30" fill="#1C5D00"></circle>
    <path d="M0 -15 V15 M-15 0 H15" stroke="#fff" stroke-width="6" stroke-linecap="round"></path>
  </g>
  <g transform="translate(320,110)" fill="#F9C718">
    <path d="M0 -16 5 -5 16 0 5 5 0 16 -5 5 -16 0 -5 -5Z"></path>
  </g>
</svg>
