<svg xmlns="http://www.w3.org/2000/svg" viewBox="0 0 600 600" role="img"><style>.surface-fill{fill:oklch(0.99 0.003 220)}.text-bar{fill:oklch(0.18 0 0);fill-opacity:.42}.muted-bar{fill:oklch(0.18 0 0);fill-opacity:.22}.platform{fill:oklch(0.18 0.015 220);fill-opacity:.06}@media (prefers-color-scheme:dark){.surface-fill{fill:oklch(0.28 0.018 220)}.text-bar{fill:oklch(0.96 0.006 220);fill-opacity:.6}.muted-bar{fill:oklch(0.96 0.006 220);fill-opacity:.34}.platform{fill:oklch(0.99 0.003 220);fill-opacity:.04}}</style><defs><linearGradient id="gTopGreen" x1="0" x2=".4" y1="0" y2="1"><stop offset="0" stop-color="oklch(0.78 0.14 138)"/><stop offset="1" stop-color="oklch(0.57 0.17 138)"/></linearGradient><linearGradient id="gFrontGreen" x1="0" x2="0" y1="0" y2="1"><stop offset="0" stop-color="oklch(0.57 0.17 138)"/><stop offset="1" stop-color="oklch(0.42 0.14 138)"/></linearGradient><linearGradient id="gSideGreen" x1="0" x2="0" y1="0" y2="1"><stop offset="0" stop-color="oklch(0.5 0.16 138)"/><stop offset="1" stop-color="oklch(0.34 0.11 138)"/></linearGradient><linearGradient id="gTopBlue" x1="0" x2=".4" y1="0" y2="1"><stop offset="0" stop-color="oklch(0.74 0.15 260)"/><stop offset="1" stop-color="oklch(0.51 0.19 260)"/></linearGradient><linearGradient id="gFrontBlue" x1="0" x2="0" y1="0" y2="1"><stop offset="0" stop-color="oklch(0.51 0.19 260)"/><stop offset="1" stop-color="oklch(0.37 0.16 260)"/></linearGradient><linearGradient id="gSideBlue" x1="0" x2="0" y1="0" y2="1"><stop offset="0" stop-color="oklch(0.44 0.18 260)"/><stop offset="1" stop-color="oklch(0.3 0.13 260)"/></linearGradient><radialGradient id="gFlame" cx=".5" cy=".7" r=".7"><stop offset="0" stop-color="oklch(0.95 0.1 90)"/><stop offset=".45" stop-color="oklch(0.85 0.17 90)"/><stop offset=".95" stop-color="oklch(0.65 0.18 60)"/></radialGradient><filter id="softShadow" x="-25%" y="-25%" width="150%" height="150%"><feGaussianBlur in="SourceAlpha" stdDeviation="8"/><feOffset dx="0" dy="14"/><feComponentTransfer><feFuncA type="linear" slope=".22"/></feComponentTransfer><feMerge><feMergeNode/><feMergeNode in="SourceGraphic"/></feMerge></filter><filter id="liftShadow" x="-30%" y="-30%" width="160%" height="160%"><feGaussianBlur in="SourceAlpha" stdDeviation="10"/><feOffset dx="-4" dy="18"/><feComponentTransfer><feFuncA type="linear" slope=".28"/></feComponentTransfer><feMerge><feMergeNode/><feMergeNode in="SourceGraphic"/></feMerge></filter><filter id="flameGlow" x="-80%" y="-80%" width="260%" height="260%"><feGaussianBlur stdDeviation="10" result="b"/><feMerge><feMergeNode in="b"/><feMergeNode in="SourceGraphic"/></feMerge></filter></defs><ellipse cx="300" cy="510" rx="220" ry="22" class="platform"/><path d="M120 470 300 380l180 90-180 90Z" fill="oklch(0.57 0.17 138)" opacity=".05"/><path d="M180 470 300 410l120 60-120 60Z" fill="none" stroke="oklch(0.57 0.17 138)" stroke-opacity=".22" stroke-width="1" stroke-dasharray="3 5"/><g filter="url(#softShadow)" transform="translate(110 200)"><path d="M0 95v32L160 207V175Z" fill="url(#gFrontGreen)"/><path d="M160 175 320 95v32L160 207Z" fill="url(#gSideGreen)"/><path d="M0 95 160 15l160 80-160 80Z" fill="url(#gTopGreen)"/><path d="M0 95 160 15l160 80-160 80Z" class="surface-fill" opacity=".97"/><g transform="matrix(1.6 -0.8 1.6 0.8 0 95)"><rect x="6" y="8" width="22" height="6" rx="2" fill="oklch(0.57 0.17 138)"/><rect x="32" y="9" width="40" height="4" rx="1.5" class="muted-bar"/><circle cx="92" cy="11" r="2.5" fill="oklch(0.57 0.17 138)" opacity=".5"/><rect x="60" y="22" width="36" height="22" rx="3" fill="oklch(0.57 0.17 138)" fill-opacity=".12"/><rect x="60" y="22" width="36" height="22" rx="3" fill="none" stroke="oklch(0.57 0.17 138)" stroke-opacity=".55" stroke-width=".5"/><text x="64" y="33" font-family="ui-sans-serif,system-ui,sans-serif" font-size="9" font-weight="700" fill="oklch(0.57 0.17 138)">128</text><rect x="64" y="36" width="22" height="2" rx=".8" class="muted-bar"/><rect x="64" y="40" width="14" height="2" rx=".8" class="muted-bar"/><g><circle cx="12" cy="26" r="4" fill="oklch(0.57 0.17 138)"/><rect x="20" y="23" width="32" height="3" rx="1" class="text-bar"/><rect x="20" y="28" width="22" height="2" rx=".8" class="muted-bar"/></g><g><circle cx="12" cy="38" r="4" fill="oklch(0.51 0.19 260)"/><rect x="20" y="35" width="28" height="3" rx="1" class="text-bar"/><rect x="20" y="40" width="20" height="2" rx=".8" class="muted-bar"/></g><g><circle cx="12" cy="50" r="4" fill="oklch(0.85 0.17 90)"/><rect x="20" y="47" width="34" height="3" rx="1" class="text-bar"/><rect x="20" y="52" width="18" height="2" rx=".8" class="muted-bar"/></g><g><circle cx="12" cy="62" r="4" fill="oklch(0.57 0.17 138)" opacity=".55"/><rect x="20" y="59" width="26" height="3" rx="1" class="text-bar"/><rect x="20" y="64" width="22" height="2" rx=".8" class="muted-bar"/></g><g><circle cx="12" cy="74" r="4" fill="oklch(0.51 0.19 260)" opacity=".55"/><rect x="20" y="71" width="30" height="3" rx="1" class="text-bar"/><rect x="20" y="76" width="16" height="2" rx=".8" class="muted-bar"/></g></g></g><g filter="url(#liftShadow)" transform="translate(310 305) rotate(-6)"><path d="M0 60v22l140 70V130Z" fill="url(#gFrontBlue)"/><path d="M140 130 240 80v22L140 152Z" fill="url(#gSideBlue)"/><path d="M0 60 100 10l140 70-140 70Z" fill="url(#gTopBlue)"/><path d="M0 60 100 10l140 70-140 70Z" class="surface-fill" opacity=".97"/><g transform="matrix(1.4 -0.7 1.4 0.7 0 60)"><rect x="8" y="10" width="50" height="4" rx="1.5" fill="oklch(0.51 0.19 260)" fill-opacity=".75"/><rect x="8" y="18" width="32" height="2.5" rx=".8" class="muted-bar"/><rect x="8" y="32" width="64" height="2" rx=".8" class="muted-bar"/><rect x="8" y="38" width="56" height="2" rx=".8" class="muted-bar"/><rect x="8" y="44" width="44" height="2" rx=".8" class="muted-bar"/><rect x="8" y="50" width="60" height="2" rx=".8" class="muted-bar"/><g transform="translate(82 32)"><circle r="9" fill="oklch(0.85 0.17 90)"/><circle r="6.5" fill="none" stroke="oklch(0.99 0.003 220)" stroke-opacity=".8" stroke-width="1"/><path d="M-3.5-1 -.8 2 3.5-2.5" fill="none" stroke="oklch(0.99 0.003 220)" stroke-width="1.4" stroke-linecap="round" stroke-linejoin="round"/><path d="M-7 8-10 18l6-2 2 5 3-5 6 2-3-10z" fill="oklch(0.85 0.17 90)"/><path d="M-7 8-10 18l6-2-2-8z" fill="oklch(0.75 0.16 90)"/><path d="M7 8l3 10-6-2 1-7z" fill="oklch(0.75 0.16 90)"/></g></g></g><g filter="url(#flameGlow)" transform="translate(440 140)"><path d="M0 0c-14-22-4-40 8-54-2 18 14 22 16 44 1 16-10 28-26 28S-10 10 0 0Z" fill="url(#gFlame)"/><path d="M3-10c-7-12-2-22 5-32-2 12 7 16 9 26 1 10-5 16-12 16s-9-4-2-10Z" fill="oklch(0.95 0.08 90)" opacity=".8"/><ellipse cx="0" cy="8" rx="7" ry="3" fill="oklch(0.99 0.003 90)" opacity=".55"/></g><g opacity=".85"><circle cx="120" cy="180" r="4" fill="oklch(0.85 0.17 90)"/><circle cx="510" cy="280" r="3.5" fill="oklch(0.51 0.19 260)"/><circle cx="90" cy="340" r="3" fill="oklch(0.57 0.17 138)"/><circle cx="540" cy="420" r="4" fill="oklch(0.85 0.17 90)" opacity=".75"/><circle cx="70" cy="430" r="2.5" fill="oklch(0.51 0.19 260)" opacity=".75"/><circle cx="470" cy="90" r="2.5" fill="oklch(0.57 0.17 138)" opacity=".75"/><circle cx="160" cy="120" r="2" fill="oklch(0.85 0.17 90)" opacity=".7"/><circle cx="380" cy="80" r="2" fill="oklch(0.74 0.15 260)" opacity=".7"/></g><g stroke-dasharray="2 5" stroke-width="1.2" fill="none" opacity=".5"><path d="M440 165 Q400 220 380 280" stroke="oklch(0.85 0.17 90)"/><path d="M380 380 Q320 360 280 340" stroke="oklch(0.51 0.19 260)"/></g></svg>