<svg xmlns="http://www.w3.org/2000/svg" viewBox="0 0 1600 600">
  
  <rect class="lo-bg" width="1600" height="600" fill="#FAF4E8"></rect>
  
  <g transform="translate(884,44) scale(1.62)">
    <ellipse cx="222" cy="296" rx="178" ry="30" fill="#F9C718"></ellipse>
    <path d="M44 296a178 30 0 0 0 356 0Z" fill="#E0A800"></path>
    <rect x="40" y="44" width="80" height="62" rx="9" fill="#155ED0"></rect>
    <rect x="47" y="51" width="66" height="48" rx="5" fill="#EBD9C0"></rect>
    <g transform="translate(80,76)">
      <path d="M0 -19C9 -6 10 5 0 14C-10 5 -9 -6 0 -19Z" fill="#D40000"></path>
      <path d="M-13 -13C-6 -3 -5 6 -13 12C-20 6 -20 -4 -13 -13Z" fill="#3C8D0F"></path>
      <path d="M13 -13C20 -4 20 6 13 12C5 6 6 -3 13 -13Z" fill="#155ED0"></path>
    </g>
    <line x1="372" y1="20" x2="372" y2="58" stroke="#1C5D00" stroke-width="3"></line>
    <path d="M372 92c-18 0-30-14-30-30 18 0 30 12 30 30Z" fill="#3C8D0F"></path>
    <path d="M372 92c18 0 30-14 30-30-18 0-30 12-30 30Z" fill="#1C5D00"></path>
    <path d="M360 60h24l-4 22a8 8 0 0 1-16 0Z" fill="#C66A3A"></path>
    <g>
      <rect x="64" y="246" width="58" height="14" rx="6" fill="#1C5D00"></rect>
      <rect x="70" y="258" width="8" height="22" rx="4" fill="#1C5D00"></rect>
      <rect x="108" y="258" width="8" height="22" rx="4" fill="#1C5D00"></rect>
      <rect x="80" y="232" width="13" height="34" rx="6" fill="#155ED0"></rect>
      <rect x="96" y="232" width="13" height="34" rx="6" fill="#155ED0"></rect>
      <path d="M76 236q-3-40 18-42 21 2 18 42Z" fill="#D40000"></path>
      <rect x="74" y="206" width="11" height="30" rx="5" fill="#D40000"></rect>
      <rect x="103" y="206" width="11" height="30" rx="5" fill="#D40000"></rect>
      <rect x="78" y="222" width="32" height="22" rx="4" fill="#EBD9C0"></rect>
      <line x1="94" y1="224" x2="94" y2="242" stroke="#C9B894" stroke-width="1.5"></line>
      <circle cx="79" cy="232" r="6" fill="#E0A877"></circle>
      <circle cx="109" cy="232" r="6" fill="#E0A877"></circle>
      <rect x="90" y="192" width="8" height="10" fill="#E0A877"></rect>
      <ellipse class="lo-hair" cx="94" cy="182" rx="19" ry="18" fill="#2B221C"></ellipse>
      <circle cx="94" cy="184" r="16" fill="#E0A877"></circle>
      <path class="lo-hair" d="M78 178q4-14 16-14 12 0 16 14q-8-6-16-6-8 0-16 6Z" fill="#2B221C"></path>
      <circle cx="88" cy="185" r="2.1" fill="#242424"></circle>
      <circle cx="100" cy="185" r="2.1" fill="#242424"></circle>
      <path d="M89 191q5 4 10 0" stroke="#242424" stroke-width="2.2" fill="none" stroke-linecap="round"></path>
      <circle cx="84" cy="190" r="3" fill="#D40000" opacity="0.18"></circle>
      <circle cx="104" cy="190" r="3" fill="#D40000" opacity="0.18"></circle>
    </g>
    <g>
      <path d="M163 282q-6-66 24-68 30 2 24 68Z" fill="#003792"></path>
      <rect x="166" y="190" width="42" height="38" rx="15" fill="#3C8D0F"></rect>
      <rect x="163" y="198" width="12" height="40" rx="6" fill="#3C8D0F"></rect>
      <circle cx="169" cy="240" r="6.5" fill="#9A6440"></circle>
      <path d="M201 200q14-6 24-22" stroke="#3C8D0F" stroke-width="13" fill="none" stroke-linecap="round"></path>
      <circle cx="228" cy="174" r="6.5" fill="#9A6440"></circle>
      <rect x="181" y="180" width="11" height="12" fill="#9A6440"></rect>
      <ellipse class="lo-hair" cx="187" cy="166" rx="22" ry="21" fill="#241a14"></ellipse>
      <circle cx="187" cy="168" r="18" fill="#9A6440"></circle>
      <path class="lo-hair" d="M168 162q3-18 19-18 16 0 19 18q-4-9-19-9-15 0-19 9Z" fill="#241a14"></path>
      <circle class="lo-hair" cx="170" cy="150" r="8" fill="#241a14"></circle>
      <circle cx="180" cy="169" r="2.3" fill="#242424"></circle>
      <circle cx="194" cy="169" r="2.3" fill="#242424"></circle>
      <path d="M181 176q6 5 12 0" stroke="#242424" stroke-width="2.4" fill="none" stroke-linecap="round"></path>
      <circle cx="175" cy="174" r="3.2" fill="#D40000" opacity="0.2"></circle>
      <circle cx="199" cy="174" r="3.2" fill="#D40000" opacity="0.2"></circle>
    </g>
    <g>
      <rect x="296" y="236" width="14" height="42" rx="7" fill="#1C5D00"></rect>
      <rect x="313" y="236" width="14" height="42" rx="7" fill="#1C5D00"></rect>
      <rect x="290" y="196" width="44" height="46" rx="17" fill="#F9C718"></rect>
      <rect x="288" y="202" width="12" height="38" rx="6" fill="#F9C718"></rect>
      <rect x="324" y="202" width="12" height="38" rx="6" fill="#F9C718"></rect>
      <circle cx="294" cy="240" r="6.5" fill="#C2855A"></circle>
      <circle cx="330" cy="240" r="6.5" fill="#C2855A"></circle>
      <rect x="306" y="186" width="11" height="12" fill="#C2855A"></rect>
      <ellipse class="lo-hair" cx="312" cy="172" rx="20" ry="19" fill="#1E1A17"></ellipse>
      <circle cx="312" cy="174" r="17" fill="#C2855A"></circle>
      <path class="lo-hair" d="M295 170q3-15 17-15 14 0 17 15-5-7-17-7-12 0-17 7Z" fill="#1E1A17"></path>
      <circle cx="305" cy="175" r="2.2" fill="#242424"></circle>
      <circle cx="319" cy="175" r="2.2" fill="#242424"></circle>
      <path d="M306 181q6 4 12 0" stroke="#242424" stroke-width="2.3" fill="none" stroke-linecap="round"></path>
      <circle cx="300" cy="180" r="3" fill="#D40000" opacity="0.18"></circle>
      <circle cx="324" cy="180" r="3" fill="#D40000" opacity="0.18"></circle>
    </g>
  </g>
  <text class="lo-h1" x="92" y="392" font-family="&#39;Bricolage Grotesque&#39;,&#39;Trebuchet MS&#39;,sans-serif" font-size="78" font-weight="700" letter-spacing="-2" fill="#242424">Welcome back.</text>
  <rect x="98" y="414" width="156" height="10" rx="5" fill="#D40000"></rect>
  <text class="lo-sub" x="96" y="466" font-family="&#39;Mulish&#39;,&#39;Segoe UI&#39;,sans-serif" font-size="27" fill="#5B554C">Choose your community center and role to continue.</text>
</svg>