<svg xmlns="http://www.w3.org/2000/svg" aria-labelledby="reports-empty-title" viewBox="0 0 480 360"><title id="reports-empty-title">A bar chart with a rising trend line</title><style>.surface{fill:#fff}.green-500{fill:#32982d}.green-300{fill:#95c691}.blue-500{fill:#2961cd}.blue-300{fill:#7fa3dc}@media (prefers-color-scheme:dark){.surface{fill:#2a3142}}</style><ellipse cx="240" cy="320" rx="170" ry="12" style="fill:#f5f8f4"/><g transform="translate(96 80)"><rect width="288" height="220" class="surface" rx="8"/><rect width="288" height="32" class="green-500" rx="8"/><path d="M0 20h288v12H0z" class="green-500"/><rect width="60" height="6" x="14" y="12" class="surface" opacity=".95" rx="3"/><circle cx="262" cy="16" r="4" fill="#faf6e8"/><circle cx="248" cy="16" r="4" style="fill:#e6bd30"/><g stroke="#c9d2dd" stroke-dasharray="3 4" opacity=".5"><path d="M20 180h248M20 140h248M20 100h248M20 60h248"/></g><rect width="22" height="50" x="40" y="130" class="green-300" rx="3"/><rect width="22" height="38" x="40" y="142" class="green-500" rx="3"/><rect width="22" height="80" x="80" y="100" class="green-300" rx="3"/><rect width="22" height="64" x="80" y="116" class="green-500" rx="3"/><rect width="22" height="100" x="120" y="80" class="blue-300" rx="3"/><rect width="22" height="84" x="120" y="96" class="blue-500" rx="3"/><rect width="22" height="116" x="160" y="64" class="blue-300" rx="3"/><rect width="22" height="100" x="160" y="80" class="blue-500" rx="3"/><rect width="22" height="138" x="200" y="42" class="green-300" rx="3"/><rect width="22" height="122" x="200" y="58" class="green-500" rx="3"/><path stroke="#1b2230" stroke-width="1.5" d="M20 180h248" opacity=".55"/><path fill="none" stroke="#e6bd30" stroke-linecap="round" stroke-linejoin="round" stroke-width="3" d="m51 150 40-32 40-20 40-22 40-24"/><g fill="#e6bd30"><circle cx="51" cy="150" r="4"/><circle cx="91" cy="118" r="4"/><circle cx="131" cy="98" r="4"/><circle cx="171" cy="76" r="4"/><circle cx="211" cy="52" r="5"/></g><circle cx="211" cy="52" r="2" fill="#fff"/></g><g opacity=".35" style="fill:#1b2230"><circle cx="60" cy="100" r="3"/><circle cx="420" cy="120" r="2"/><circle cx="80" cy="280" r="2"/></g></svg>