<svg xmlns="http://www.w3.org/2000/svg" viewBox="0 0 440 330">
  
  <ellipse cx="220" cy="298" rx="180" ry="30" fill="#4E9E2A"></ellipse>
  <path d="M40 298a180 30 0 0 0 360 0Z" fill="#2E7D14"></path>
  <rect x="206" y="78" width="186" height="150" rx="13" fill="#EBD9C0"></rect>
  <rect x="206" y="78" width="186" height="150" rx="13" fill="none" stroke="#155ED0" stroke-width="5"></rect>
  <rect x="222" y="94" width="64" height="8" rx="4" fill="#242424"></rect>
  <rect x="222" y="108" width="40" height="7" rx="3.5" fill="#8a857c"></rect>
  <circle cx="356" cy="108" r="17" fill="none" stroke="#d8c6a4" stroke-width="8"></circle>
  <circle cx="356" cy="108" r="17" fill="none" stroke="#3C8D0F" stroke-width="8" stroke-dasharray="74 107" stroke-linecap="round" transform="rotate(-90 356 108)"></circle>
  <polyline points="224,180 250,168 274,174 300,150 326,156 356,132" fill="none" stroke="#D40000" stroke-width="3.5" stroke-linecap="round" stroke-linejoin="round"></polyline>
  <circle cx="224" cy="180" r="3.5" fill="#D40000"></circle>
  <circle cx="300" cy="150" r="3.5" fill="#D40000"></circle>
  <circle cx="356" cy="132" r="3.5" fill="#D40000"></circle>
  <rect x="224" y="198" width="13" height="14" rx="2.5" fill="#155ED0"></rect>
  <rect x="242" y="190" width="13" height="22" rx="2.5" fill="#155ED0"></rect>
  <rect x="260" y="194" width="13" height="18" rx="2.5" fill="#F9C718"></rect>
  <rect x="278" y="186" width="13" height="26" rx="2.5" fill="#3C8D0F"></rect>
  <g>
    <path d="M96 284q-6-64 26-66 32 2 26 66Z" fill="#003792"></path>
    <rect x="100" y="190" width="44" height="40" rx="16" fill="#D40000"></rect>
    <rect x="100" y="196" width="12" height="40" rx="6" fill="#D40000"></rect>
    <circle cx="106" cy="238" r="6.5" fill="#E0A877"></circle>
    <path d="M142 206q22 0 44-10" stroke="#D40000" stroke-width="12" fill="none" stroke-linecap="round"></path>
    <circle cx="188" cy="194" r="6.5" fill="#E0A877"></circle>
    <rect x="116" y="180" width="11" height="12" fill="#E0A877"></rect>
    <ellipse class="re-hair" cx="122" cy="165" rx="21" ry="20" fill="#2B221C"></ellipse>
    <circle cx="122" cy="167" r="17" fill="#E0A877"></circle>
    <path class="re-hair" d="M105 163q3-16 17-16 14 0 17 16-5-7-17-7-12 0-17 7Z" fill="#2B221C"></path>
    <circle cx="115" cy="168" r="2.2" fill="#242424"></circle>
    <circle cx="128" cy="168" r="2.2" fill="#242424"></circle>
    <path d="M115 174q6 4 12 0" stroke="#242424" stroke-width="2.3" fill="none" stroke-linecap="round"></path>
    <circle cx="110" cy="173" r="3" fill="#D40000" opacity="0.18"></circle>
    <circle cx="133" cy="173" r="3" fill="#D40000" opacity="0.18"></circle>
  </g>
</svg>