<svg xmlns="http://www.w3.org/2000/svg" aria-labelledby="students-empty-title" viewBox="0 0 480 360"><title id="students-empty-title">An open notebook with a pencil and an apple on a desk</title><style>.ink{fill:#1b2230}.green-500{fill:#32982d}.green-600{fill:#287a24}.yellow-500{fill:#e6bd30}@media (prefers-color-scheme:dark){.ink{fill:#eceef2}}</style><ellipse cx="240" cy="320" rx="180" ry="14" style="fill:#f5f8f4"/><path d="m120 240 120-60 120 60-120 60Z" style="fill:#d5edd3"/><path d="m240 180 120 60-120 60Z" class="green-500" opacity=".55"/><path d="M0 96V24L90 0v72Z" style="fill:#fff" transform="translate(150 130)"/><path d="m90 0 90 24v72L90 72Z" opacity=".7" style="fill:#c9d2dd" transform="translate(150 130)"/><path d="m150 226 90-24 90 24-90 24Z" class="ink" opacity=".15"/><g class="ink" opacity=".5" transform="translate(150 130)"><rect width="60" height="3" x="14" y="42" rx="1.5"/><rect width="48" height="3" x="14" y="54" rx="1.5"/><rect width="54" height="3" x="14" y="66" rx="1.5"/></g><g class="ink" opacity=".35" transform="translate(150 130)"><rect width="60" height="3" x="100" y="34" rx="1.5"/><rect width="50" height="3" x="100" y="46" rx="1.5"/><rect width="56" height="3" x="100" y="58" rx="1.5"/></g><g transform="rotate(28 -256.078 681.563)"><rect width="86" height="10" class="yellow-500" rx="2"/><rect width="86" height="4" rx="2" style="fill:#f1d560"/><path d="m86 0 14 5-14 5z" class="ink"/><rect width="6" height="10" x="-6" class="green-600" rx="1"/></g><g transform="translate(120 200)"><circle cx="20" cy="20" r="20" class="green-500"/><path d="M20 0a20 20 0 0 1 0 40 20 20 0 0 1 0-40" class="green-600" opacity=".25"/><path d="M20 4q3-8 10-6-2 6-10 6" class="green-600"/><ellipse cx="14" cy="14" fill="#fff" opacity=".6" rx="4" ry="3"/></g><g transform="translate(232 96)"><circle cx="8" cy="8" r="4" style="fill:#2961cd"/><circle cx="-12" cy="22" r="3" class="yellow-500"/><circle cx="22" cy="26" r="3" class="green-500"/></g></svg>