<svg xmlns="http://www.w3.org/2000/svg" viewBox="0 0 440 330">
  
  <ellipse cx="220" cy="298" rx="150" ry="28" fill="#C66A3A"></ellipse>
  <path d="M70 298a150 28 0 0 0 300 0Z" fill="#9E4E22"></path>
  <g transform="translate(330,96)">
    <rect x="-26" y="-16" width="52" height="36" rx="5" fill="#155ED0"></rect>
    <rect x="-21" y="-11" width="42" height="26" rx="3" fill="#EBD9C0"></rect>
    <line x1="0" y1="-11" x2="0" y2="15" stroke="#c9b894" stroke-width="2"></line>
  </g>
  <g transform="translate(96,120)">
    <circle cx="0" cy="6" r="15" fill="#D40000"></circle>
    <path d="M0 -9q3-7 9-6" stroke="#1C5D00" stroke-width="3.5" fill="none" stroke-linecap="round"></path>
    <ellipse cx="-5" cy="0" rx="4" ry="6" fill="#fff" opacity="0.25"></ellipse>
  </g>
  <g transform="translate(300,180)" fill="#F9C718">
    <path d="M0 -12 3 -3 12 0 3 3 0 12 -3 3 -12 0 -3 -3Z"></path>
  </g>
  <g>
    <rect x="196" y="232" width="15" height="46" rx="7" fill="#1C5D00"></rect>
    <rect x="214" y="232" width="15" height="46" rx="7" fill="#1C5D00"></rect>
    <path d="M188 240q-6-58 24-60 30 2 24 60Z" fill="#3C8D0F"></path>
    <rect x="184" y="200" width="12" height="38" rx="6" fill="#3C8D0F"></rect>
    <rect x="180" y="220" width="34" height="24" rx="4" fill="#EBD9C0"></rect>
    <line x1="197" y1="222" x2="197" y2="242" stroke="#c9b894" stroke-width="1.6"></line>
    <circle cx="186" cy="234" r="6.5" fill="#C2855A"></circle>
    <path d="M232 204q12-2 18-14" stroke="#3C8D0F" stroke-width="12" fill="none" stroke-linecap="round"></path>
    <circle cx="252" cy="186" r="6.5" fill="#C2855A"></circle>
    <rect x="206" y="184" width="11" height="13" fill="#C2855A"></rect>
    <ellipse class="st-hair" cx="211" cy="168" rx="22" ry="21" fill="#1E1A17"></ellipse>
    <circle cx="211" cy="170" r="18" fill="#C2855A"></circle>
    <path class="st-hair" d="M192 166q3-17 19-17 16 0 19 17-5-8-19-8-14 0-19 8Z" fill="#1E1A17"></path>
    <circle cx="204" cy="171" r="2.3" fill="#242424"></circle>
    <circle cx="218" cy="171" r="2.3" fill="#242424"></circle>
    <path d="M204 177q7 5 14 0" stroke="#242424" stroke-width="2.4" fill="none" stroke-linecap="round"></path>
    <circle cx="199" cy="176" r="3.2" fill="#D40000" opacity="0.2"></circle>
    <circle cx="223" cy="176" r="3.2" fill="#D40000" opacity="0.2"></circle>
  </g>
</svg>