<svg xmlns="http://www.w3.org/2000/svg" aria-labelledby="teachers-empty-title" viewBox="0 0 480 360"><title id="teachers-empty-title">A chalkboard with notes and a piece of chalk</title><style>.ink{fill:#1b2230}@media (prefers-color-scheme:dark){.ink{fill:#eceef2}}</style><ellipse cx="240" cy="320" rx="170" ry="12" style="fill:#f5f8f4"/><g transform="translate(86 64)"><rect width="320" height="220" x="-6" y="-6" rx="6" style="fill:#faf6e8"/><rect width="308" height="208" rx="4" style="fill:#143f11"/><rect width="308" height="208" opacity=".5" rx="4" style="fill:#1b5c18"/><g opacity=".88" style="fill:#f0f2ee"><rect width="120" height="4" x="22" y="30" rx="2"/><rect width="86" height="3" x="22" y="44" opacity=".7" rx="1.5"/><path fill="none" stroke="#f0f2ee" stroke-linecap="round" stroke-width="2.5" d="M22 78q22-16 44 0t44 0 44 0"/><rect width="68" height="3" x="22" y="108" opacity=".75" rx="1.5"/><rect width="92" height="3" x="22" y="120" opacity=".55" rx="1.5"/><rect width="56" height="3" x="22" y="132" opacity=".55" rx="1.5"/></g><g transform="translate(196 90)"><circle cx="40" cy="40" r="42" fill="#f0f2ee" opacity=".15"/><circle cx="40" cy="40" r="34" fill="none" stroke="#f0f2ee" stroke-width="2.4" opacity=".7"/><text x="40" y="46" fill="#f0f2ee" font-family="serif" font-size="20" font-style="italic" opacity=".9" text-anchor="middle">A+</text></g><rect width="320" height="14" x="-6" y="200" opacity=".7" rx="2" style="fill:#c9d2dd"/><rect width="320" height="6" x="-6" y="208" class="ink" opacity=".25" rx="2"/><rect width="40" height="8" x="40" y="202" rx="2" style="fill:#e6bd30"/><path d="M40 208h40v2H40z" class="ink" opacity=".25"/><rect width="48" height="8" x="200" y="202" rx="2" style="fill:#2961cd"/></g><g class="ink" opacity=".4"><circle cx="60" cy="120" r="3"/><circle cx="420" cy="160" r="2"/><circle cx="60" cy="260" r="2"/></g></svg>