<svg xmlns="http://www.w3.org/2000/svg" fill="none" style="width:100%;height:100%;display:block" viewBox="0 0 100 100"><g clip-path="url(#a)"><path fill="#090706" d="M78.2 1.4q2.6 1.4 4 4-.3 0-.2.3.8 2.1.9 4.3v1.1q-.3.3-.2.7l.1 1q.1.3-.3.1l-.5-.2q-.6-.2-.6-.7l.2-1.6v-.3l-.8-3.7-.5-.8-.4-.7-.3-.4a1 1 0 0 0-.7-.6l-.2-.2-.8-1-.2-.1a8 8 0 0 0-3.2-.3 7 7 0 0 0-2.6.6q-.8.3-2.3 1.2a13 13 0 0 0-3.1 2.6l-2 2q-.7.5-1.5 1.6l-.2.5-.4 1.1q-.4.7-.5 1.5-.1.4-.4.1-.2-.2-.5-.1l.3-.4.2-.9.2-.6.3-.7q.2-.9.8-1.5h.2q.2 0 .1-.3v-.1A15 15 0 0 1 65.3 6l2.5-2 2-1.3q1.4-.8 2.1-1a10 10 0 0 1 4.4-.7q1 0 1.9.5"/><path fill="#685b4f" d="m77.9 2.7.8 1-.7-.3-.6-.5a6 6 0 0 0-2.9-.6 8 8 0 0 1 3.2.3z"/><path fill="#f7efd6" d="M74.5 2.3a6 6 0 0 1 2.9.6l.6.5.7.3.2.2q.2.4.7.6l.3.4q0 .4-.2.4-2-2.2-5-2.4-1.2 0-2.5.5-2.5 1-4.6 2.7l-1 .8-.1-.2a13 13 0 0 1 3.1-2.6q1.5-.9 2.3-1.2a7 7 0 0 1 2.6-.6"/><path fill="#443e38" d="m79.7 5.3.3.4.1.1q.2 0 .2-.2l.5.8.8 3.7v.3l-.2 1.6q0 .5.6.7v.2q-.3 0-.5.7v.7l-.1 1q-.2.4-.1 1.1l-.1 1-.8 3.8q-.7-.2-1.3-.7h-.3l-1.1.9h-.2q-.3 0-.1-.3v-.2l.1-.3q1 .4.2-.3-.1-.2 0-.4l.1-.1q0-.4-.3-.3v-.6q0 .2.2 0t.3 0l.1.2q.4.3.6-.5l-.2-.2-.4-.1-.2-.1q0-.1-.2 0l.1-.7.5-.3V17q0-.2-.2-.2v-.6l.2-.6q-.2-.7.2-1.3.2-.3 0-.6l-.1-.2-.2-1.5.4-.3.2-.1q.2-.1.1.2l.2.4v1.3l.1.1v.1q.3.3 0 .5l-.1.2q0 .7-.3.9-.4.4.2.7h.2l.1-.1.3-2v-1l-.1-1.5-.2-.6v-.3l-.1-.3-.3-.4q-.2-.4-.6-.4-.2 0-.1-.2.2-.3.2-.7v-.2q-1.7-2-4.5-2.3-2.6-.2-4.7 1.5l-1.6 1.3a11 11 0 0 0-3 4.2 3 3 0 0 0-1.6-1h-.2q-.3.2-.4 0l.4-1.2.2-.5q.8-1.1 1.6-1.6l2-1.8 1-.8a15 15 0 0 1 4.6-2.7q1.3-.5 2.5-.5 3 .2 5 2.4"/><path fill="#716257" d="M78.9 4q.5 0 .7.5z"/><path fill="#83786e" d="M79.9 5q.3.2.4.6 0 .3-.2.2H80l-.3-.5q.3 0 .2-.4"/><path fill="#312f2a" d="m82.2 5.5.2.4q1.4 3.6 1 7.5-.4 4-1.8 7.7-.2 0-.2-.2l.5-1.8q.2-.6 0-1.2-.1-.3.1-.7l.4-.7.2-1.8q.2-.5 0-1 0-.4-.3-.1l-.4.2-.2-.1.4-.5v-.5l.4.2q.4.2.3-.2l-.1-.9q-.1-.4.2-.7V10a16 16 0 0 0-.9-4.3q0-.3.2-.2"/><path fill="#050504" d="M74 6q2.7.2 4.4 2.4v.1q0 .4-.2.7-.1.2.1.2.4 0 .6.4l.3.4q.2.1 0 .3v.3q.3.3.3.6v1.4q.2.7.1 1.1l-.3 2-.2.2H79q-.6-.4-.2-.8.3-.2.3-1 .4-.3.2-.6l-.1-.2v-1.2l-.1-.1-.2-.4q.1-.3-.1-.2h-.2l-.4.4-1.1-3.2-.7-.8a5 5 0 0 0-2.8-.9q-.8 0-1.8.5-3.6 2-5.8 5.4l-1 1.6q-.4.3-.3.6t.4.3l2 .8 3 1.5 2.1 1.1q1.5.8 2.8 1.9.3.1.5.5l.1.1 1 .4q.5.1.6.5.2.4.6.6l.5.3 1 .8h.1q.5-.6.5-1.3l.5-1.5.8-3.8v-1q0-.7.2-1 .2-.5.1-1v-.9q.2-.5.5-.6.2.1 0 .3l-.3.5q0 .2.2.1l.4-.2q.3-.3.4 0v1l-.3 2-.4.6q-.2.4 0 .7.1.6-.1 1.2l-.5 1.8q0 .3.2.2l-1.3 3.2q-.2.4.1.6a46 46 0 0 1 8 10.8h.1l1.9-.6a5 5 0 0 1 2.2-.7h2.1l1.5.6 1.8 1.3.2.2q0 .3.5.5.2.1.2.3.7 1 1 2.3v.9a7 7 0 0 1-1 4h-.2q-.2.1-.1.4v.2l-.6.9a3 3 0 0 1-1.3 1.3q-.6.6-1.4 1.1a5 5 0 0 1-2.4.8l-.2.2q0 .6.3 1v5.3q.2.5 0 1v1l-.6 4.2-.3 1.4v.2l-.4 1q-.3.2-.1.5v.2l-.1.6-.3.6-.2.7-.2.7-.3.8q0 .6-.2.9l-.5.8A42 42 0 0 1 83.6 81l-1.7 2q-.8.5-1.3 1.1a32 32 0 0 1-4 4l-2.6 2-2.8 1.6-1.2.7-.8.4q-1 .8-2.6 1.3l-1.4.6q-.7.5-1.3.7l-4 1.7q-1.4.3-2.7.8l-2.4.5-2.4.4q-3.1.3-6.3.2h-3.3q-5.8-.4-6.6-.6L34 98h-1.5l-2.2-1-4.8-1.6-2.3-1.1-3-2-4-2.4-2-1.7-2.3-2-1.4-1.8-1.2-1.2-.6-.8-2.4-3.6q-.5-.5-1.3-2.1A43 43 0 0 1 2.3 70l-.3-.5a44 44 0 0 1-1.8-7.3l-.1-3V57q-.2-2 .1-4 0-1 .3-1.9a38 38 0 0 1 5-14.5l.8-1.4L7 34l1.4-1.8v.6h.2l.6-.1.2-.1v-.2l-.4-.6h-.3v-.6l-1-3.9a4 4 0 0 0-.2-1.9l-.2-.7V24q.2-.2.1-.4l-.1-.5q-.1-2.4.3-4.4a21 21 0 0 1 2.4-6 11 11 0 0 1 4-4l.6-.3q.7-.5 1.6-.5l.6.1h.4q3 0 5.9 1.8 1.2.8 1.7 1.4a20 20 0 0 1 2.8 3.2l.3.5q.3.5.9.8l.3.6h.1l4.2-1.6h1l.3-.2v-.1h.1l2.9-.9 4.7-.7a6 6 0 0 1 2.3-.2l2.5-.2a6 6 0 0 1 2.3.2h.2q.3-.2.7-.2 1 .2 2.1.2l4.3.5 4.1 1 .8.4q1 .2 1.7.8h.3l.9-2.2a11 11 0 0 1 3-4.2l1.6-1.3q2-1.7 4.7-1.5m-63.6 8.4-.5 1q-.7 1.2-.9 2.5-.3 1.9-.4 4.2v.4l-.1 1q0 .6-.5.4h-.1q0 .2.3.2a.2.2 0 0 1 .2.3q0 1.3.2 2.5 0 1 .4 2.2l.6 2.2q0 .7.6 1.5.4.7.6 1.7l.7 1.9q.4.6.6 1.3v.1q-.3.1-.3-.2l-.3-.6-.5-.4a7 7 0 0 1-1.1-2.2l-.2-.3q0-.6-.3-.1l-.6.6-.4.5-.5.3-.1.1a3 3 0 0 1-.7 1.6l-.5.8-.4.9q-.6 1-1 2.3L3.3 46q-.5 1.5-.6 2.7l-.4 1v.7l-.1.7q-.4 2-.6 5.4v.9l.2 1.9v.3l-.2.4v.1q.3.5.3 1v1l.4 2.1q-.1.9.2 1.7.3.6.4 1.4.7 2.7 1.1 3.4l.5 1.6v.2l.6 1q.3.4.3 1v.2l.4.3.1.2 1.2 2.2.2.3q.6.5.8 1.2.1.7 1 1.5.6.7 1 1.5l.5.5.5.5.4.6.4.5q.9.6 1.5 1.5l1.5 1.3.7.8 2.3 1.8 1.3.9 1.3.9 4.3 2.4 5 2 .6.4q.4.2.9.1h.2a38 38 0 0 0 6.4 1.5l2.6.6h1l1.7-.1 1.2.2 2.2-.1 3.2-.3 2.5-.3a55 55 0 0 0 7.2-1.5l2-.8 2-.8 2.4-1 .6-.4 1.3-.7.3-.1.4-.3.2-.1q.4 0 .7-.3.6-.6 1.5-.7h.1q.7-1 1.8-1.3l.8-.6h.3q.7 0 1-.6l.1-.3q.9-1 1.7-1.6.6.5.9 0h.1q.4-.2.5-.6H78q-.6-.1.1-.7l.5-.5 2.3-2.3q.8-.7 1.6-2 .6-.6 1-1.3 0-.2.4-.5l.3-.6.5-.8q.7-.6.9-1.3t.7-1.1q.2-.2.3-.8l.2-.1v-.2q.3-1.3 1.5-1.4.3 0 0-.1-.4 0-.6-.2v-.1q.7-1.1.7-1.5 0-1 .9-1.1V69q-.4-.3-.2-.8l.5-.9.2-.9.2-.9 1-4.7q.2-.4.3-1.5l.2-1.6v-1.6l.1-1.6-.3-5-.1-.2-3.5-1.4-.3-.1-1.6-1.5a8 8 0 0 1-.9-3.7l.2-.5V42q-.1-1 .3-1.9l2.1-3.5v-.3l-1.2-2q-.4-.8-1.3-2l-2-2.6-2-2.4q-2.3-2.4-3.6-3.5-1.8-1.6-4.4-3.2L70.4 19l-2.8-1.4-3.9-1.5-4.7-1.3-1.5-.2-1-.2a19 19 0 0 0-5.8-.6 4 4 0 0 0-2.2-.1h-1.7l-2.5.1h-.1l-.4-.3h-.1q-.4-.1-.6.2-.3.6-.6.1h-.2l-.5.1-.1.1q-1.2 0-2.3.2l-.4-.1h-.2q-.7.5-1.5.6-1.4.3-2.6.9a6 6 0 0 0-2.3.7l-.4.1h-.3l-1.3.7q-.7.2-.1.5.1.6.4 1l.9 1.6v.2q-.2.3-.5 0l-.7-1-.2-.1q-.5 0-.2-.5.2-.2 0-.4h-.4l-.2-.1-.5-.7h-.3l-1 .1q-.7.1-.2-.3.2-.3.5-.4v-.3a34 34 0 0 0-5.8-5.9l-.6-.2a14 14 0 0 0-3.2-1.1l-.9-.2h-.8l-1.6.4q-1 .5-2 1.3-.7.4-1.3 1.3-1 1.3-1.3 2m16.5.3v-.5h-.3v.5h.2m66 20.8q-2.3 0-3.8 1.4-.7.5-1 1.1l-.7.3h-.1a2 2 0 0 0-.8 1.1q0 .2.2.2l.1-.1.3-.7v-.1h.1q.3-.1.3.1l-.2.6-.1.4a1 1 0 0 0-.4.8l-.2.3-.2.4v.3q-.6 3.3 2 5.3l.8.5 2.3 1 .8.1h.8l.7-.2 1.2-.6.5-.5.4-.1.1-.1q.1-.2 0-.4t.3-.3l.1-.1.7-.9.7.2h.1q.2-.5-.4-.7v-.1h-.2q-.7.1 0-.4.2.4.2 0 .9-.7.3-1.5v-.1q.1-.2.3 0h.1v-.1q.2-.6 0-1.2h.2l-.1-.1-.2-.2q.5 0 .3-.3v-.2q0-.9-.3-1.6l-.4-.5q-.9-.6 0-.7.2 0 0-.2l-.8-.6q-1.6-2-4-1.5m6.4 3.9q.2-.4-.2-.3h-.1q-.4 1 .1.5zM4.1 42l-.3.1v.1H4q.4.1.3-.2zm94.3 2.6q-.2 0 0 0t0-.2h-.1zM81.5 82.2q0 .2.2.1l.1-.1q.2-.6-.2-.1z"/><path fill="#b8b599" d="m66.5 6.7.1.2-2 1.8z"/><path fill="#c77f6d" d="M77 8.8q.8 1.5 1.2 3.2l.2 1.5v.2q.3.3.1.6-.4.6-.2 1.3l-.2.6v.6q-.4.3-.3.7l-.1.7-.2.5-.2.1H77l-.4-.6q-4.6-3-6.7-4-1-.5-3.3-.9h-.3q-.3 0-.4-.3 2.2-3.5 5.8-5.4 1-.5 1.8-.5a5 5 0 0 1 2.8.9q.4.3.7.8"/><path fill="#faf3df" d="M18.3 9.5q1.7.3 3.2 1v.3l-2-.6-1.3-.2H18q-.3.2-1 0l-.6.1-2 .8-1.2.9-1 1.1-2 3.3q-.5 1-1 3l-.5 2.9q0-2.3.3-4.2.2-1.3 1-2.5.8 0 .4-.5v-.5l1.3-2.1q.6-1 1.2-1.3l2-1.3 1.7-.3h1.8"/><path fill="#443e38" d="M18.2 10q.6.2 1.3.2l2 .6h.6a35 35 0 0 1 5.9 5.9v.3h-.1l-.5.4q-.5.4.1.3l1-.2h.2l.2.1.5.7.2.1h.4q.2.2 0 .4-.3.4.2.5l.2.2q.2.6.7 1 .3.2.5 0v-.2l-.9-1.7-.4-1 1.2-.4q.4-.2.2-.7h.3q-.1.7.5.4 1.5-.5 4.3-.9a41 41 0 0 1 7.4-1.4l1.1-.2h1.3l.4-.2h.2l1.5.1 4 .2 4.7.5h.7q.2-.2 0-.2l-.6-.2 1.5.2q2.5.5 4.7 1.3l4 1.5 2.7 1.4 2.7 1.6q2.6 1.6 4.4 3.2 1.3 1.1 3.6 3.5l2 2.4 2 2.5q1 1.3 1.3 2 .5 1.2 1.2 2.1v.3l-2 3.5q-.5 1-.4 1.9v.2l-.2.6a8 8 0 0 0 1 3.6q-.3.6-.8.2L85 46q-.5-.7-.7-1.6l-.4-1.2-1.1-2.8-1.5-2.7a22 22 0 0 0-5-5.3l-1.4-.8h-.1l-.9-.7-2.6-1.3-2.1-.7-2.2-.4h-.4l-.3.1h-.6l-2-.4-1.3-.2q-.5-.1-.7.4-.2.7.5.6l1.6-.2.7.1.6.1q1.2 0 2.3.5l-2.6-.2q-3-.4-6 .5l-1.5.3-4.2 1.7-1.7 1.2-1.2.7q0-.9.7-.8h.1q.6-.5.6-1t.7-.5h.4q.5-.4 1.1-.3h.2q.7-.7 1.4-.8.4 0 .5-.3h.1l2.1-.6q.9 0 1.3-.2l1.1-.3h.1l.3-.8q0-.1 0 0l-1.8.3-1.6.2a23 23 0 0 0-7.6 3.6q-.2.1 0 .3t0 .2q0 .2-.4.3l-.1-.1q-.1-.2-.3-.1l-1.1.9-.1.1q-.2.1 0 .3t-.2.7q-.2.2-.5 0l-.1-.1H47a12 12 0 0 0-2.4 3l-.4.6q-.5.7.1 1.4.4.4 0 .3-.4 0-.7-.5h-.1a21 21 0 0 0-1.8 3.7.1.1 0 0 0 0 .2h.1q.5 0 .2.2l-.7.7L41 46q-.2.6-.1 1.3 0 .5.2.3v-.2l.4-1.3h.3v.1q-.4 1-.3 1.7 0 .4.4.4v.4h-.5L41 48l-.2-.2q-.2 0-.2.3l.3.6v.2q-.5.4-.3 1v.2l-.1.5v.2l.1.3-.1.3q-.2.4 0 .9t0 1.2v.3h.1l.4.6q0 .8.4 1.5.1.3-.1.5-.2-.1-.2 0 0 .3-.3.2h-.2q-.5.1-.5.8-.1 1.2.1 2l.6 2.4a30 30 0 0 1 1.8 4.6l.4 1.2.7 1 .4 1.1v.2l1.3.7a27 27 0 0 0 4.2 3.5l1.4 1q.8.6 1.7 1 .6.5 1.4.6l2 .6 5 .4 1 .2h.2q.2.2.5 0-.2.5 0 .8h1v-.2l.2-.7.5.2h3.9a16 16 0 0 0 4.4-1.2h.1q.2.3 0 .5l-.2.2-.4 1.1-.2.2L71 80l-2 1.2.2-.5v-.2a.1.1 0 0 0-.2 0q-.9.1-1 .9l-.3 1q-.5-.2-1 0L64 84.1l-1 .4-1 .3-.5-.1h-.1l-.2.1q.5-1-.7-.6h-.2v.2l-1.7 3.4q-.7-.2-1.2.2t-1.2.5q-1.4.5-2.9.6l-1.3.3-.2.2q-.2.2-.2-.1a1 1 0 0 0-.9 0l-1.5-.3h-.8q-.4.2-1 .1H46l-.8-.1H44q-.2 0-.3.2 0-.5.2-.7.3-.4-.2-.5h-.2q-.4.4-.5.9l-.4.6v-.2q.3-.3 0-.5-.7-.2-1.5.3h-1.4l-2-.1-2.2-.4q-.4 0-.7-.2h-.2l-1.2.2q-.7.3-1.8.2h-2l-1.4-.3q-.4 0-.7-.2l-.8-.4-.7-.1-.7-.3h-.2l-.1.1.2-.6a7 7 0 0 0 1.3-2q.2-.6-.4-.4-1 .5-1.3 1.5l-1 2v-.4q.1-.4-.2-.5-.8-.2-1.6-.8l-.7-.3-.7-.5-.8-.7-2.4-1.9-.6-.4L15 82l-3.2-1-.7-.4-.7-.2-.6-.2-.7.1q-.8-.8-1-1.5t-.8-1.2l-.2-.3-1.2-2.2v-.2l-.5-.3v-.2a1 1 0 0 0-.3-1l-.6-1v-.2q0-.7-.5-1.6-.4-.7-1.1-3.4l-.4-1.4a3 3 0 0 1-.2-1.7L1.9 62v-1l-.3-1v-.1l.2-.4v-.3l-.1-1.9v-.9q0-3.3.5-5.4v-.7l.1-.7.4-1q0-1.2.6-2.7L5.2 41q.4-1.2 1-2.3l.4-.9.5-.7a3 3 0 0 0 .7-1.7H8l.5-.4.4-.5-.5 1v.7a2 2 0 0 0-.9 1.2q-.3.4-.2.9l-.5.6v.2q0 .4-.3 1-.3.4-1 2.3-.3.6-.4 1.3l-.5 2-.1 1h.1q.4-2.2 1.2-4.2.6-1.1 1-2.4l.5-1 .4-1 .3-.6q.4-.6.5-1.3L9.7 34l.2.3q.4 1.2 1.1 2.2l.5.4.3.6q0 .3.2.3h.1a.1.1 0 0 0 0-.2l-.6-1.3-.7-1.9q-.2-1-.6-1.7-.6-.8-.6-1.5L9 29l-.4-2.2-.2-2.5a.2.2 0 0 0-.2-.3q-.3 0-.3-.2H8q.5.2.5-.4v-1l.2-.4.5-2.8q.5-2.1 1-3.1l2-3.2 1-1.2q.5-.5 1.3-.9l1.9-.8zm-4.3 16v1q.5 1.5.5 3l.2.6.1.7q-.5 0-.7-.2l-.2-.5q-.2-1 .2-2a.3.3 0 0 0-.3-.5l-.3-.2-.1-.1-.3-.5V27q.8-.7 0-.4l-.2.1q-.2.2 0 .4v.2q0 .5.3 1l.1.1q.4 0 .4.4v.1h-.4v.1l.5 2v.7l.2.4a11 11 0 0 0 2 3.7v.2q.3.4.4 0v-.7q.8 0 1.3-.5l.8.7h.3q.2 0 .1-.2l-.2-.2q-.6-.4-.6-1.1 1 0 1.2-1l.5 1q.5.9 1 .1V34l-.4-1.1-.3-.6 1.5-1.5q.3.1.5.6t1 .5h.1a3 3 0 0 0-.8-1.6h-.6q-1-.7.2-1l.2.2v.4h.2l1.5-1.6.1-.1q0-.7-.3-1.3t.4-.7l.1.1.4 1h.3l1-.9q.2 1 1.3 1.7h.2q0-1-.5-2l-.3-.3q-.3 0-.5.4l-.1-.2q-.1-.6.4-.9l.2.4h.1q.6-.3.9-1L25.9 22l-2.3-2.6q0-.4.3-.5.4-.2 0-.2l-.7-.3v-.2q0-.3.4 0l.2.2q.8.5 1.1 1t.8 1q.3.3.5 1l.1.2q.8.6.8 1.8h.1q.9.1.5.9v.2h.1q.7-.4.2-1a40 40 0 0 0-4-5.7l-.6-.5-.5-.4-.4-.6-.3-.2-.3-.2-.2-.1q-.3-.3-1-.5l-.3-.1-.7-.3H19q-2 .1-3.2 1.7l-.4.3q-.9.4-1.4 1.6l-.2.3q-.7.8-.7 2l-.2.7q-.2.2-.1.6v.2q-.1.6.3.4h.1a.1.1 0 0 0 0-.2q0-.5.3-.3v.2q.1.2-.1.4h-.2l-.3.7-.2.6q.1.4.4.6h.2q.5 0 .3.3 0 .3-.3.2H13q-.3.6.4.6zm31.2-9q-.4-.5-1-.3l-.2.2a9 9 0 0 0 1.9 3l.4.4q.3.4.8.3l.1-.2-.5-1.1q0-.4-.3-.6l-.1-.2zm13.2 2.4v.4l.8 2.6q.1.9.5 1.7h.1q.5 0 .7-.3v-.2a1 1 0 0 1-.3-1l-.6-2.9q-.1-.5-.4-.6-.4-.4-.8.3M36.8 19h-.2l-.3.7v.1l1.4 2q.5.5 1 .7.8.4.5-.3l-.6-1-.7-.9zm15 3h-.1q.1 1.5 1 2.7l.4.9.3.4.3.4q.3.1.3-.2a2 2 0 0 0-.5-1.2l-.2-.3-.3-1.1-.5-.6q-.2-.3-.2-.8V22q-.2-.1-.4 0M46 25l-.4-.5q-.7-1.1-1.6-.4a.2.2 0 0 0 0 .4q.5.3.6.9v.2l2.6 2.2q.2.2.2-.1-.2-.9-1.2-1.8l-.1-.5zm31.9 3q-1.2 2.1.3 3.7.4.5 1 .5.7.1 1.1-.4t.5-1.4q0-1.9-1.5-3.1h-.2q-.8 0-1.2.7m-53.6 1q.4.6 1.1.4l.1-.1v-.2l-.7-1.5h-.2q-.6 0-.5.6zm17.5 2.3-1.7-2.2h-.3l-.5.4v.2q.2.6.8 1.3 1.1 1.2 2 1.8h.2q.4 0 .5-.4 0-.2-.3-.4zm-6.7 3q-.8-.5-1.5-1.2L33 33l-.7-.8q-.8-1-1.1.2v.1l.4.3.2.1q.4.7 1.2 1l.1.1q.8 1.2 2.2 1.2l.1-.3zm-2.5 6-.1-.2q0-.7-.9-1H31l-1.5 1q-.2.1-.2.5v.6q-.4 1.8.8 3.2h.1l1.4.4h.2l1.1-1.3q.4-.6.3-1.3-.3-.9-.2-1.2 0-.4-.4-.7M33 54q.5 0 .1-.5l-1.6-1.3-.2-.2q-.1-.3-.6-.5-1.5-.6-3-.6l-2 .1-2 .4a3 3 0 0 0-1.5 1q-1.5 1-1.8 1.6a12 12 0 0 0-1.6 4.4v1q0 .6.2 1.1V62l1.3 1.6 1.3 1.4q.9.7 1.7 1a6 6 0 0 0 2.5.4q.6 0 1.1-.2h.2a11 11 0 0 0 3.1-.5q.7-.2 1.4-.7l1.4-1.2.8-1q.4-.7.4-1.4V61q.7-1.2.8-2.5v-.1q-.4-.5 0-1v-.1a10 10 0 0 0-1-2.8l-.2-.3q-.3-.2-.4.1v.2q0 .4-.2.2l-.1-.2-.2-.5zm11 16.2h-.5q-.4-.1-.5.2l-.9 2.4-.5.9q-.2.4.1.4l.3-.1q.6-.5.8-1.3.1-.4 1.3-2.2.3-.5-.1-.3m-10.7 4.1q-.4.1-.6.6t.3.6h.1q.7-.7 1-1.7v-.1q.3-.2.3-.4.2-.8.8-1.3.2-.2 0-.3-1.2 0-1.6 1l-.4 1.2v.2zm-10 .4q-1.7 1.8-2.5 3.6v.2q0 .2.2 0l1-1.5.7-1q.2-.6.6-1zm22 7.8q-.4.2-.6.8 0 .4.3.2 1.2-1 1.8-2.5l1-2.2v-.2H47q-.2 0-.4.3l-1.6 3v.2zm8 1.1-.3.2q-.2.3.2.3.5-.2.7-.5l.5-.6.5-1 .3-1 .5-1.3q.1-.4-.3-.2-.6.3-.8 1l-.5 1-.7 2zm-16.7-2.4q-.5 0-1 .4l-1 2q-.3.7-.2 1 0 .5.4.3.6-.3.5-.8V84l1-1.4q.4-.4.6-1z"/><path fill="#b8b599" d="m21.5 10.6.6.2h-.6z"/><path fill="#443e38" d="M61 13.4q.2.3-.1.6l-4.1-1-4.3-.5-2.1-.2-.7.1h-.2a6 6 0 0 0-2.3-.1l-2.5.2a6 6 0 0 0-2.3.2l-4.7.7-2.9.9h-.1l-.3.4h-1l-4.2 1.5H29l-.3-.6a45 45 0 0 1 15.7-3.7l.6-.2.7-.1A48 48 0 0 1 61 13.4"/><path fill="#2c2925" d="M62.4 12q.1.2.4 0h.2a3 3 0 0 1 1.6 1l-.9 2.1-.3.1q-.6-.6-1.7-.8L61 14q.3-.3.1-.6l.5.1q.3.3.4 0z"/><path fill="#af6c54" d="M66 13q0 .3.4.3h.3q2.3.4 3.3 1 2 1 6.7 3.9l.4.5v.1h.4v.7l-.7 1v.8q0 .4-.3.1-5.2-4.3-11.5-6.7zm9 5.6v-.4h-.1l-.1.1v.2zm.8.3q-.2.3.2.3l.1-.1q.2-.3-.1-.3z"/><path fill="#3b3732" d="m43.8 13.5.3.3h2.7-.6l-2.8.5-4 .5q-.2 0-.1.1-.6-.1-.4.1a3 3 0 0 0-1.7.4l-2.4.2q1.1-.6 2.5-.9l1.5-.6h.1l.5.1 2.3-.2h.1a.4.4 0 0 1 .5-.3l.2.1q.3.5.6 0t.6-.4z"/><path fill="#443e38" d="M50.7 13.8a19 19 0 0 1 5.8.6h-2.3l-.9-.2h-.9l-2.8-.2-1.1-.3a4 4 0 0 1 2.2 0"/><path fill="#97826f" d="m48.5 13.7-2.3.1h.6z"/><path fill="#faf3df" d="m48.5 13.7 1 .3.3.1q.4 0 0 .2h-1.1l-1.5-.1H47l-.5.2h-1.2l-1.1.2q-3.8.4-7.4 1.4-2.8.4-4.3 1-.6.2-.5-.6l.4-.1 1.2-.3h.2q.7.3 1-.4l2.4-.2q.8-.4 1.7-.4l.4-.1q-.1-.2.1-.1l4-.5 2.8-.5z"/><path fill="#b8b599" d="m49.6 14 2.8.2q.3 0 .4.3l-4.1-.2h1.1q.4-.1 0-.2z"/><path fill="#25211c" d="M26.8 14.6h-.1l-.1-.1V14h.3z"/><path fill="#83786e" d="m54.2 14.3 2.3.1 1 .2.6.2q.2 0 0 .1 0 .2-.7 0l-4.6-.4q0-.3-.4-.3h1z"/><path fill="#b8b599" d="M10.4 14.4v.5q.4.6-.5.5z"/><path fill="#312f2a" d="M65 14.6q6.3 2.4 11.5 6.7.3.3.2-.1l.1-.7h.7v.3l-.1.2q-.2.2 0 .3h.2l1.2-.9h.3q.6.5 1.3.7l-.5 1.5q0 .7-.5 1.3l-1-.8-.6-.3-.6-.6q-.1-.4-.5-.5l-1-.4-.2-.1-.5-.5a14 14 0 0 0-2.8-1.9l-2.2-1-2.8-1.5-2-.8q-.4-.1-.5-.3-.1-.3.3-.6"/><path fill="#090706" d="M19.7 15q.4 0 .7.3h.2q.8.3 1.1.6l.2.1q.2 0 .3.2l.3.2.5.6.4.4.5.5a40 40 0 0 1 4.1 5.6q.5.7-.1 1.2h-.1q-.2-.2 0-.3.3-.8-.6-.8l-.1-.1q0-1.2-.8-1.8v-.2q-.3-.7-.6-1-.5-.4-.8-1t-1-1l-.3-.1q-.4-.4-.5-.1v.2l.8.3q.4 0 0 .2-.3.1-.3.5L23 19q-1.3-2-3.6-2.4l-.4-.1h-.4l-.5-.1H18l-2 1.1q-.6.4-1 1-.6 1-1 2.3l-.2.7-.1.5v.1q.2.4 0 .9v2.7l-.3.1q-.7 0-.4-.6h.2q.2 0 .3-.2.2-.3-.3-.2h-.1l-.5-.7.2-.6.3-.6.2-.1.2-.4v-.1h-.1q-.4-.3-.3.2v.1q-.5.3-.4-.3v-.8l.3-.6q0-1.3.7-2l.2-.4q.5-1.2 1.4-1.6l.4-.3Q17 15.1 19 15zm3.2 2.5-1-.8q-.5-.3-.4.2t.4.5h.3l.6.3q.4 0 0-.2"/><path fill="#83786e" d="M39.3 14.9q-.2.2-.4.1-.2-.2.4-.1"/><path fill="#716257" d="M34.7 15.6q-.2.7-1 .4h-.1l-1.2.3a6 6 0 0 1 2.3-.7"/><path fill="#cc836f" d="M18.2 16.5h.9l.4.2q2.3.4 3.6 2.4 0 .2.5.4l2.3 2.6-.4.4-.5.3-3.9 3.5-5.9 5.4h-.3l-.2-.4-.1-.7-.2-.6-.4-3-.1-1.1-.1-1V23q.2-.5 0-.9V22l.1-.5.1-.7q.5-1.3 1.1-2.3.4-.6 1-1l2-1.1zM16.7 22"/><path fill="#faf3df" d="M31.7 16.5q.2.5-.2.7l-1.2.4q-.6-.3 0-.5z"/><path fill="#6e6053" d="M45.1 16.8q.7.7 1 1.6l.2.2.3.6.5 1v.3q-.6.1-1-.3l-.3-.5A9 9 0 0 1 44 17v-.3q.7-.3 1.1.2"/><path fill="#403222" d="m21.9 16.6 1 .8q.3.3 0 .2l-.7-.2-.3-.1q-.4-.1-.4-.5-.1-.5.4-.2"/><path fill="#89634b" d="M78 16.8q.4 0 .4.2v.1l-.1.1-.5.3q0-.4.3-.7"/><path fill="#13100e" d="M78 18.3h.5a.2.2 0 0 1 .2.3q-.2.8-.6.5v-.2q-.1-.2-.4 0-.2.2-.3 0v-.2l.3-.5q.1-.1.2 0z"/><path fill="#9e6950" d="M75 18.6a.1.1 0 0 1-.2 0v-.3a.1.1 0 0 1 .2 0v.2m.9.6q-.4 0-.2-.3h.2q.4-.1.1.2z"/><path fill="#685b4f" d="m59.6 19.5.6 3q0 .5.2.9v.2q-.1.4-.6.4l-.1-.2-.5-1.6-.9-2.6v-.4q.5-.7 1-.3.2.1.3.6m0 3.7q0 .1.1 0h.1q.2-.4-.1-.1m-23-4.1q.7.6 1.2 1.3l.7 1 .6 1q.3.6-.5.2l-1-.6q-.5-.5-1.4-2v-.2z"/><path fill="#6a5133" d="M77.5 19.5q.4 0 .3.3l-.1.1q-.1.2 0 .4.8.7-.2.3h-.7a2 2 0 0 1 .7-1.1"/><path fill="#6e6053" d="M52 22h.3v.2q0 .5.2.8l.5.6.3 1 .2.4q.4.6.5 1.2 0 .3-.3.2l-.3-.4-.3-.4-.4-.9a6 6 0 0 1-1-2.7z"/><path fill="#cc836f" d="M16.7 22a.1.1 0 1 1-.3 0 .1.1 0 0 1 .3 0"/><path fill="#b8b599" d="m8.7 22-.1.5v-.4z"/><path fill="#af6c54" d="m26 22.1 1.5 2.3v.2q-.3.6-.9.9h-.1l-.2-.4q0-.3-.2-.4h-.2q-1 .7 0 1.3v.2l-.1.2-1 1h-.3v-.2l-.4-.9-.1-.1q-.6 0-.4.7.3.6.3 1.3v.1L22.2 30h-.1l-.1-.4-.2-.2q-1.2.3-.2 1l-.2.5-1.5 1.5-.3-.7-.5-1H19l-.2.3-.1.4q-.2.3.2.4v.1l.2 1.2q-.2 1-1.2 1l-.5-1.2h-.1q-.4.2-.1.6l.3 1.4q-.5.5-1.3.5-.6-1.1-1-2.3l-.4-1.2h.3l6-5.5 3.8-3.5.5-.3z"/><path fill="#524c41" d="M59.7 23.3v-.1q.3-.4.2 0z"/><path fill="#716257" d="M45.7 24.5q.1.3.4.5.1 0 0 .4l.2.5q1 1 1.2 1.8 0 .3-.2.1l-2.6-2.2v-.2a1 1 0 0 0-.6-1v-.3q1-.7 1.6.4m-.6.8q-.2.4.1.2l.1-.1q.3-.5 0-.3z"/><path fill="#050504" d="M26 24.7q.3.1.3.4-.5.3-.4 1-1-.7 0-1.4z"/><path fill="#605449" d="M45.2 25.5q-.3.2 0-.2V25q.4-.2.1.3z"/><path fill="#090706" d="M26.8 26.2q.5.9.5 1.8l-.2.1q-1.1-.6-1.3-1.7l.2-.2q.2-.5.5-.4zM13 27v.3l.3.5v.1l.4.2.3.3v.1q-.4 1.2-.2 2l.2.6q.2.3.7.2l.2.5q0 .6.4 1.2.4 1.2 1 2.3v.6q0 .5-.3.1l-.2-.2a11 11 0 0 1-1.9-3.7l-.2-.4V31l-.5-2h.4a.1.1 0 0 0 0-.2q0-.3-.4-.4H13l-.3-1.1V27q-.2-.2 0-.4l.2-.1q.8-.3 0 .4"/><path fill="#050504" d="M79.3 27.4q1.6 1.2 1.5 3 0 1-.5 1.5t-1.1.4-1-.5q-1.5-1.6-.3-3.7.4-.7 1.2-.8z"/><path fill="#13100e" d="m24.8 27.7.7 1.5v.2q-.8.3-1.2-.3l-.2-.8q0-.7.5-.7z"/><path fill="#090706" d="m62.4 28 1.3.2 2 .3.6.1h.3l.4-.1 2.2.4 2 .7q1.5.5 2.7 1.3.5.2.9.6l.1.1q.7.3 1.3.8a22 22 0 0 1 5.1 5.3q.7 1 1.4 2.7l1.2 2.8.4 1.2q-.3.5-.5 0v-.1q-.3-.3-.3.1v.1q.3.5 0 .8v.2q0 .3.2.1l.1-.2q.2-.3.4 0v.2q-.1.2 0 .4l.2.1a10 10 0 0 1 .6 4.4l-.2 2-.3 2-.7 2.6q-.4 1.4-1 2.6l-1.6 2.8q-1.2 2-2.7 3.6l-2.3 2-2.6 1.8q-3.2 1.8-6.3 2.4l-3.1.7H64l-.6-.2h-.7l-1.2-.1q-1.5 0-3-.3-.7.1-1.4-.1l-3-1-1.4-.7-1.5-.8-1.9-1.3-.4-.3-.4-.3-3-3.2-.5-.4q-.3-.3-.2-.6v-.2q-.3-.8-1.3-1.5-.3-.2.2-.1l.6.2q.1 0 0-.1l-1.5-1.7v-.6q0-.5.2-.5.2-.3-.3-.2l-.4-.2q0-.2-.5-.3l-.1-.2v-.1l.4-.4.1-.1.4-.4a.1.1 0 0 0 0-.2q-.4 0-.4.3t-.2.2l-.2-.2-.2-.4-.3-.1q-.1-.2 0-.4.2-.2 0-.5l-.3-1.5-.4-.5-.1-.3q.3-.7 0-1.3-.2-.5 0-.9l.1-.3v-.3l-.1-.1v-.1l.1-.5V50q-.2-.6.2-1v-.2l-.2-.6q0-.3.2-.3l.2.2.4.5.1.1h.4l-.1 1.1-.2.2q-.2.2 0 .3l.1.1q.1.1 0 0l.2 1.7q0 .1-.1 0-.4-.2-.8-.1-.3.1 0 .2 1 0 1 .7l-.1.7.2 1q.3.5.3 1.6v.2q2 6.4 6.6 10.7a18 18 0 0 0 5.6 3.4l1.8.7 2 .7H60q1.8.3 4 0h.7l.4-.1q6.4-1 11-5.2Q83 60.4 83.3 51l.1-.7v-.8l-.1-1v-.2q-.2-.8 0-1V47a30 30 0 0 0-2-6l-.8-1.5a.1.1 0 0 1 0-.2l.9-.3.1-.1q.1-.3-.3-.2l-.7.2h-.3a21 21 0 0 0-4.6-5.3l-2-1.6-2.1-1.1-2.2-.8-2-.5a6 6 0 0 0-2.2-.5h-.6l-.7-.2-1.6.2q-.7.1-.5-.6.2-.5.7-.4M41.2 49.8v-.2l-.3-.3h-.2v.4l.3.3zM84 51.2h.2l.1-.3v-.5H84l-.1.3zm-42.8-.7q-.9.1-.1.6h.2q.4-.2 0-.5zm42.7 1.8h.2l.3-.2.1-.3v-.2h-.2l-.2.2-.2.3zm-42.3 2.4v-.3h-.1a.1.1 0 0 0-.2 0v.2zm.2.9v.2h.2q.3 0 0-.4-.1-.4-.2.2m2 4.9q-.3-.8-.2 0 .2.1.1 0"/><path fill="#13100e" d="M60.8 28h.1l-.2.8-.2.1q-.4 0-1 .3t-1.4.2l-2 .5-.2.1q-.1.2-.5.3-.7 0-1.4.7h-.2q-.6 0-1.1.3l-.4.1q-.7 0-.7.5t-.6 1q-.8 0-.7.8l-.2.1q-1 .2-1.4 1a13 13 0 0 0-3 3.6l-.8 1q-.2.2-.1.5a18 18 0 0 0-2 5.6l-.8 2.8q-.4 0-.4-.4 0-.7.3-1.7V46h-.3l-.3 1.3v.1H41q-.2.3-.2-.2v-1.4l.4-1.6q.2-.4.7-.7.3-.1-.2-.2a.1.1 0 0 1-.1-.2 21 21 0 0 1 1.8-3.7h.1q.3.4.6.5.5 0 .1-.3-.6-.7-.1-1.4l.4-.7a12 12 0 0 1 2.4-2.9h.2q.3.3.5 0 .4-.4.2-.6t0-.3v-.1l1.2-1q.2 0 .3.2h.1q.3 0 .4-.2v-.2q-.2-.2 0-.3a23 23 0 0 1 7.6-3.6l1.6-.2zM43.6 40.4v.1l-.2.2q-.3.2-.3.6v.2q.2 0 .3-.2V41l.5-.5a.1.1 0 0 0 0-.2q0-.3-.2 0z"/><path fill="#6e6053" d="m40 29.2 1.8 2.2.7.6q.3.3.3.5 0 .4-.5.4h-.2q-.9-.6-2-1.8-.6-.7-.8-1.3v-.1l.5-.5z"/><path fill="#faf3df" d="m64.8 29.3 2.6.2 1.9.5-.1.3-5.6-.4-.4-.2H63l-2 .3-3.7.9a26 26 0 0 0-8.1 4.6 6 6 0 0 0-1.7 1.6L46 39.4q-.5 0-.4-.5l.1-.5a13 13 0 0 1 3-3.6l1.4-1 .2-.1 1.2-.7 1.7-1.2 4.2-1.7 1.6-.3q3-1 6-.5"/><path fill="#716257" d="m63.2 29.7.4.2q2.8 0 5.6.4l1.9.5q.2.2.4 0 1.1.5 2.1 1.2l2 1.5a21 21 0 0 1 4.6 5.3l.1.1h.2l.7-.3q.4 0 .3.2h-.1l-.8.4v.2q.3.8.8 1.5a30 30 0 0 1 1.8 6v1.6l.2 1v1.4Q83 60.4 76 66.6q-4.6 4.2-11 5.2l-.4.1h-.8q-2.1.4-4 0h-1.4l-2.1-.7-1.8-.7A18 18 0 0 1 49 67q-4.7-4.3-6.5-10.7v-.2q-.1-1-.4-1.7l-.2-1V53q.1-.7-.8-.7-.4 0 0-.2.3-.1.7.1.1.1 0 0v-1.6l-.2-.2q-.2-.1 0-.3l.2-.2v-1.5q.3-1.5.9-2.8 0 .2.1.1l.1-.1 1.5-3.7 1.5-2.4 1.5-2.3a6 6 0 0 1 1.7-1.6 26 26 0 0 1 8.1-4.6l3.7-.8 2.1-.4zm-1.6 18.7v.2l-.2.6v.2q0 1 .5 2l-2 .2-1.2.1a2 2 0 0 0-1.3-.2q-.5.1-.8 0l-2-.2-.2-.1q-.5-.3-1.1-.1h-1q-.9.1-1.5.6l-.6.5q-.3.2-.5.6l-.6 1-.3 1L49 56q.2.8.7 1.4.1.4.4.6l1.4 1a.1.1 0 0 0 .2 0v-.2h.2q-.3.6.2.7 1.8.5 3.6.6h.1v.1a1 1 0 0 1-.2 1v3.5q.1 1.9.8 3.5.2.7.8 1 1.6 1 3.4.3l.7-.4q.4-.2.5-.7l.2-.4.2-.3q.7-1.5.4-3.1a10 10 0 0 0-.1-3.6l-.1-.1q-.1-.1-.2.1 0 .3-.2.3h-.1V61l.2-.5v-.2q.2-.4-.3-.4h-.2v-.1h.1l1.7-.4.9-.2q.5-.3 1.2-.2l1-.2.6-.2-.7.5-.2.2v.1q-.3.6.1.4l1.3-.6 1.3-.5a23 23 0 0 0 3.9-2.4.1.1 0 0 0 0-.2q0-.2-.3 0-.4.5-1 .5l.5-.6.6-.5q.3-.2.5-.6 1.2-1.1 2-2.5l.6-1.9v-.3q-.1-.1-.4 0-.2 0 0-.2h.4q.4-.7.1-1.4l-.6-1.1q-.6-1-1.7-.8h-.1l-.5-.2q-1.8.4-3.5 1.8l-.4.2-2.3 1-2.7 1.2-.4.3q-.3.2-.7.1l-.3-.8a1 1 0 0 0-.2-1v-.8a22 22 0 0 0-.7-4.8q0-.3-.6-.6-.1 0 0 0l2-.6q.7-.1 2.1-1.1 1-.8 1.3-2.1.2-1.2-.5-1.8-.4-.3-1.5-.7l-1.4-.5h-1.4q-3.4.5-5.9 2.4-1.1.9-1.2 2.4 0 .5.3.9t1 .7 1.7.4l.8.1q.4.1.8 0h1.5l.1.1q.1 1.4.4 2.7v1l.2 1 .1.1zm4 11.3-.8-.1h-.6l-1.5.2q-.6.2-.3.6l.1.1 2.3-.2.8-.3q.2-.3 0-.3"/><path fill="#b8b599" d="m69.3 30 2.2.8q-.2.2-.4 0l-2-.5z"/><path fill="#13100e" d="M22.3 30.3q.6.7.8 1.5v.1q-.9 0-1.1-.5t-.5-.6l.2-.4.4-.2zm-3 .3q.3.4.4 1 0 .4.3.7l.3.6q.4.5.5 1l-.1.2q-.5.8-1-.1l-.5-1-.1-1.2H19q-.4-.2-.2-.5l.1-.4.2-.3z"/><path fill="#6e6053" d="M32.3 32.1q.3.5.7.8l.6.3 1.5 1.3.3.3v.3h-.1q-1.4 0-2.2-1.2l-.1-.1a2 2 0 0 1-1.2-1l-.2-.1-.3-.2-.1-.1v-.1q.3-1.2 1.1-.2"/><path fill="#312f2a" d="m9 31.8.4.6v.2l-.2.1-.6.1h-.1v-.6l.2-.4z"/><path fill="#13100e" d="M17.5 32.8q.4.5.5 1.2t.6 1l.2.3q.1.2-.1.2h-.3l-.8-.7-.3-1.4q-.3-.4 0-.6a.1.1 0 0 1 .2 0"/><path fill="#aba085" d="m9.7 34.1-1.3 2.2h-.1v-.6q.4-.4.5-1l.6-.7q.3-.5.3.1"/><path fill="#605449" d="m50 33.8-1.4 1q.5-.8 1.4-1"/><path fill="#af6c54" d="m96.7 36.8-.6-.2a6 6 0 0 0-2-1v-.1h-.2l-1.2-.1q2.5-.5 4 1.4"/><path fill="#fef9e9" d="M92.7 35.4H94l.1.1h.1q1.1.4 2 1.1l.6.2v.4h-.1q-.5 0-1.1-.4-.8-.6-2.4-.8l-1 .2h-.7l-.5.2q-1.3.7-2.2 2-.2.4-.7.8h-.2q-.3-.2-.2-.6l.4-.5.8-.7.2-.2v-.4q1.5-1.4 3.7-1.4"/><path fill="#c9826f" d="M93.1 36q1.6.2 2.4.8l1 .5h.1v-.1l.2-.3.8.6q.2.2 0 .2-.9 0 0 .7.3.2.4.5.3.7.2 1.6l.1.2q.2.3-.3.3-.7.1.2.3v1.2h-.5a.1.1 0 0 0 0 .2q.6.8-.3 1.4l-.2.1q-.7.5 0 .3h.2v.2q0 .3-.4.5l-.7.9h-.1q-.4.1-.4.4-.5.1-.4.6l-.5.5-1.2.6h-.4V48q0-.4.3-.7l.4-.8q0-.2-.2 0l-.4.6-.4.7v.6h-.8l-.8-.2-2.3-.9q-.2 0-.8-.5-2.6-2-2-5.3v-.3l.2-.4v.1h.1l.8.2.1.2v.1q0 .7.5.8h.1v.1q0 .4-.3.3h-.1q-.2-.4-.6-.2v.2q0 .4.7.5t.7-.4v-.3q.2-.3-.2-.3l-.1-.1q-.4-.7.2-.4h.2q.2 0 .1-.2h-.1l-.3-.2q0-.6-.5-.3l-.3.1q-.4-.5 0-.9l.2-.4q.1-.3-.5-.4l.2-.6q0-.2.2-.1 0 .4.2.6h.2q.5-.4.7-.8 1-1.3 2.2-2 0 .5.3.2t.2-.4h.7q.5-.3 1-.2m-.2 1.7.3-.3v-.2q0-.3-.3 0l-.3.3q-.4.1-.6.4v.2l.3.7q.1-.7.5-1.1m3.2.2v.2l.1.2q0 .5.6.3a.1.1 0 0 0 0-.2 1 1 0 0 0-.6-.7q-.7-.5 0 .2m-5 0-.2.5v.2q0 .2 0 0l.3-.6q0-.7-.1 0m2.7 1.4V39l.1-.2q.2-.2 0-.5-.2-.4-.3 0v.7q-.2.2 0 .2h.1m-2.5 0q-.3.3-.1.5 0 .1.1 0 .1-.3.6-.7.1-.2 0-.2h-.2zm5.5.1v.2h.2l.4-.4q.2-.1 0-.2-.3 0-.6.4m.4.7q-.6.4 0 .5h.1q.2-.2.1-.4.1-.5.5-.7a.1.1 0 0 0 .1-.2h.1q-.6.2-.7.8m-2.4-.4q.4.2.3 0-.1-.4-.3 0m-2.8 0q.2.3.2 0v-.1H92zm1.5.1q-.3-.2-.3.1v.1a.1.1 0 0 0 .2 0l.2-.1q0-.1 0 0zm-2.3.6-.5-.1h-.2q.7 1 1.2 0zm4.7.8q.2-.2-.1-.2h-.2q-.2.3-.6 0l-.2.1v.7l.5.2q.7.2.5-.6zm-2.8.3q.1.1.2 0v-.2q-.5-.6-.8.2l.1.3h.2zm-6.6-.1q-.2.3 0 .9 0 .3.2 0l.6-.9v-.1q-.6-.1-.8 0m11 .5v.2h.5v.1q-.1-.4-.3 0zm-6.8 1.2q.3-.2.3-.6v-.2q.2-.2.1-.4v-.1H91l-.8.3-.5.8v.1l.2.2.3.2q.4.3.4-.2zm3.3-.8q0-.3-.2 0v.2zm-1.6-.2q-.5.3-.2.4h.1l.2-.3zm2.5.3q-.2-.2-.5.3-.3.3.1.1t.8 0h.1q.1-.4-.3-.3h-.1m2.4.4q-.4 0 0 .2h.1q.1 0 0-.2m-10 .4a.3.3 0 1 0-.5 0 .3.3 0 0 0 .5 0m4 1.2q.4-.7-.3-.8H91l.4.7zm1.3.2-.3-.3h-.1q-.1.4.2.5h.3q.3.2.2-.2zm3 1 .1-.1.3-.3.1-.4v-.3l-.2.1-.4.7zm-4.4-.6a.1.1 0 0 0 0-.2H91a.1.1 0 0 0-.2.1l-.1.9v.1h.3zm-3 .2-.1-.2q-.6-.2-.4.2l.2.2q.2 0 .3-.2m5.2.6q-.3.1-.1.4h.1l.4-.7v-.2q0-.4-.2-.2h-.1v.6zm-4.2.7.2-.5q0-.1 0 0-.5 0-.6-.2H89q-.3-.3-.2 0v.2q.3.2.4.5.1.7.3 0m2.5 1 .3.2.4-.1v-.3l-.7-.7z"/><path fill="#25211c" d="m91.4 36.2-.2.4q-.3.3-.3-.2z"/><path fill="#f6e7ba" d="M8.4 36.3 8 37.6h-.5q.2-.9.9-1.3"/><path fill="#090706" d="m63 36.4 1.4.5q1.1.4 1.5.7.7.6.5 1.8-.3 1.3-1.3 2-1.4 1-2.1 1.2l-2 .6q-.1 0 0 0 .6.3.6.6.6 2.4.7 4.8-.4.1-.7-.2l-.2-.2V48l-.2-1v-1l-.5-2.7h-.1q-1.3-.2-1.5-.1-.4.1-.8 0h-.8l-1.8-.5-1-.7q-.3-.4-.2-1 .1-1.4 1.2-2.3 2.5-1.9 6-2.4zm-.7 1-3 .8a7 7 0 0 0-3.4 2.4l-.3.5v.3q.9 1.2 2.4 1.3l2-.1q1.3-.1 2-.4a6 6 0 0 0 2.5-1.7q.5-.6.6-1V38l-.2-.1-.6-.3q-.9-.5-2-.3m-.8 9.4q0 .5.5.6.2 0 .1-.1l-.8-3V44l-.1.2.2 1.8z"/><path fill="#83786e" d="M89 36.8v.4l-.2.2-.8.7v-.2q.3-.6 1-1"/><path fill="#743f4c" fill-opacity=".2" d="m93.2 37.4-.4.3-.4 1q0 .2 0 0l-.4-.6V38q.2-.3.6-.4l.3-.2q.3-.4.3-.1z"/><path fill="#f26c2d" d="m64.3 37.7.6.3.2.1v1.3q-.1.5-.6 1.1a6 6 0 0 1-2.5 1.7q-.7.3-2 .4l-2 .1q-1.5 0-2.4-1.3V41h.5l.2-.1 2-1.6q.5-.4 1.2-.6l1.3-.5 1.5-.2q.2.1 0 .3h.9l.2-.1q.4 0 .2-.3l-.2-.1h-.8l-.3-.5q1.1-.2 2 .3m0 1-.5.3-.7.4q.9-.2 1.4-.7v-.1zm-5 1.5q-.4-.3 0 .3v.1q0 .1.1 0 .3 0 0-.4m2 .2h-.5v.1q-.1.6-.6.9l-.4.4q-.2.3 0 .3h.2l.8-1 .6-.7v-.1q0-.1 0 0zm-2.8.7v-.7l-.4.2a.2.2 0 0 0 0 .4q.5.4 0 .6H58v.1q-.1.5.2.1l.2-.3h.2q.4-.1 0-.3z"/><path fill="#faf3df" d="m62.3 37.4.3.4q0 .3-.3.3l-1.5.2-1.3.5q-.7.2-1.2.6l-2 1.6-.2.1h-.5l.3-.5a7 7 0 0 1 3.4-2.4z"/><path fill="#25211c" d="M96.2 37.7q-.1 0 0 .2-.7-.7 0-.2"/><path fill="#83786e" d="m7.4 37.5.5.1-.3.6q-.3-.1-.4.2a1 1 0 0 1 .2-.9"/><path fill="#743f4c" fill-opacity=".2" d="M91.3 38q0-.1-.1 0 .1-.7.1 0"/><path fill="#fff" d="M96.2 37.7q.5.2.6.7a.1.1 0 0 1 0 .2q-.5.2-.6-.3v-.4q-.1-.1 0-.2"/><path fill="#af6c54" d="M63.6 38q.2.3-.2.3h-.2l-.8.2v-.1l-.1-.3q.2 0 .3-.3h.8z"/><path fill="#403222" d="m88 38-.4.6-.2.1q0-.2-.3-.2v.2l-.4.7h-.1q-.2.1-.2 0a2 2 0 0 1 .7-1.1h.2z"/><path fill="#90554d" fill-opacity=".7" d="m91.3 38-.2.6q-.1.2-.2 0v-.2l.3-.4q0-.1.1 0"/><path fill="#b8b599" d="m7.6 38.2-.4 1-.5 1q-.4 1.3-1 2.4h-.2q.6-2 1-2.5l.2-.9V39l.5-.6q.1-.3.4-.2"/><path fill="#a96e61" fill-opacity=".7" d="M94 38.4q.2.3 0 .5v.2q0 .5-.1.3v-.1h-.1q-.3 0-.2-.2v-.2l.1-.4q.1-.5.3 0"/><path fill="#d0c196" d="m45.6 38.4-.1.5q-.1.5.4.5l-1.5 2.4-1.5 3.7v.1q-.2.1-.2-.1a18 18 0 0 1 2-5.6q.2-.1.1-.4z"/><path fill="#83786e" d="M64.5 38.7q-.5.5-1.3.7-.1 0 0 0l.6-.4.4-.2q.2-.3.4-.2z"/><path fill="#90554d" fill-opacity=".7" d="m92 38.9-.1.2q-.5.4-.6.7 0 .1 0 0-.3-.2 0-.4l.4-.5z"/><path fill="#111512" fill-opacity=".4" d="M99 39.5q-.5.5-.2-.4l.2-.1q.4-.1.2.3z"/><path fill="#25211c" d="M97.3 39.1q.3.1 0 .2l-.3.3h-.1q-.1 0 0-.1.2-.5.4-.4"/><path fill="#050504" d="M31.6 39.4q1 .2.9.9l.1.2q.5.3.4.7l.2 1.2q.1.7-.3 1.3L31.8 45h-.2l-1.4-.2-.1-.1q-1.2-1.4-.8-3.2v-.6q0-.4.2-.6l1.5-.8zm-.2 3V42l-.3-.2H31v.4z"/><path fill="#f6e7ba" d="M87.2 39.3q.6 0 .5.4l-.3.4q-.3.4 0 1l-.8-.1q-.1-.1 0-.2v-.3a1 1 0 0 0 .5-.8z"/><path fill="#25211c" d="M97.9 39.4v.2q-.5.2-.6.7h-.2q.1-.7.7-.9"/><path fill="#685b4f" d="M44.8 39.5q.1.2-.1.4-.1-.3.1-.4"/><path fill="#90554d" fill-opacity=".7" d="M95 39.7q.2.3-.2.2v-.1q.2-.4.3 0m-3 0q.1.3 0 0a.1.1 0 0 1 0-.2h.1z"/><path fill="#6e6053" d="m87 39.7-.3.8a1 1 0 0 1 .4-.8"/><path fill="#90554d" fill-opacity=".7" d="M93.6 40q0-.1 0 0 0 .2-.2.2h-.1V40q-.1-.3.2 0"/><path fill="#312f2a" d="m43.9 40.5-.4.5v.3q-.2.3-.4.2v-.2q0-.4.3-.6l.1-.2v-.1l.2-.2q.3-.2.3.1z"/><path fill="#af6c54" d="M59.3 40.3q.3.3 0 .4h-.1q-.4-.7 0-.4"/><path fill="#743f4c" fill-opacity=".2" d="M97.2 40.2h.2l-.1.4H97q-.5 0 .1-.4"/><path fill="#9e6950" d="M61.4 40.5q-.3.2-.6.8l-.8.9q-.3 0 0-.3l.3-.4q.5-.3.5-.8l.1-.1.4-.1.1-.1q.1-.1.1 0"/><path fill="#f26c2d" d="m58.4 40.7.1.4.2.1q.3.2 0 .2l-.3.1-.2.3q-.3.4-.3 0v-.1l.2-.1q.5-.2 0-.6a.2.2 0 0 1 0-.4l.3-.2z"/><path fill="#90554d" fill-opacity=".7" d="M91.7 40.6q-.5.9-1.1 0-.2-.2 0-.2h.2l.4.2h.2l.2-.2a.1.1 0 0 1 0 .2"/><path fill="#9e6950" d="m88.3 41.2.3.1.1.1v.3l-.3-.1q-.6-.3-.2.4h.1q.4 0 .3.4l-.1.3q-.1.4-.7.4t-.7-.5v-.2q.4-.2.6.1l.1.1q.4.1.4-.3l-.2-.1q-.5-.1-.4-.8v-.1l-.2-.2.4-.2q.4-.3.4.2z"/><path fill="#743f4c" fill-opacity=".2" d="m98 41 .2.2q.2.1 0 .1-1-.2-.2-.3"/><path fill="#a96e61" fill-opacity=".7" d="M95 41.2q.4.3.6 0h.2q.3 0 0 .2v.2q.2.8-.5.6-.4 0-.5-.2v-.7z"/><path fill="#90554d" fill-opacity=".7" d="M93.2 41.7q0 .1-.2 0h-.1l-.2.2h-.1q-.3 0-.2-.2.3-.8.8-.2z"/><path fill="#f6e7ba" d="M87.1 41.5v.1l-.5.9q-.2.3-.2 0-.2-.6 0-1z"/><path fill="#3a3630" d="M31.4 42.4h-.2l-.3-.2v-.4h.2l.3.2z"/><path fill="#743f4c" fill-opacity=".2" d="M97.9 42.2q-.2.1-.4 0h-.1a.1.1 0 0 1 0-.2h.2q.2-.4.3 0z"/><path fill="#89634b" d="M91.1 42q.1.2 0 .4v.2q0 .4-.4.6h-.2q0 .6-.4.3l-.3-.2-.2-.2V43l.5-.8q.4-.3.8-.3z"/><path fill="#13100e" d="M4.2 42.1q0 .3-.3.3v-.1q0-.2.2-.2"/><path fill="#90554d" fill-opacity=".7" d="m93.9 42.6-.2-.1v-.1h.1q.3-.3.2 0v.1zm-1.5-.1-.2.3H92q-.3-.1.2-.4z"/><path fill="#a96e61" fill-opacity=".7" d="M95 42.7q.4-.1.4.3a.1.1 0 0 1-.2 0h-.8q-.4.2-.1-.1.3-.5.5-.3z"/><path fill="#97826f" d="M5.5 42.5q0 .1.2 0a19 19 0 0 0-1.2 4.3h-.1v-1l.6-2q0-.7.5-1.3"/><path fill="#25211c" d="M97.5 43.1v.2h-.2q-.4-.3 0-.2z"/><path fill="#89634b" d="M87.4 43.5a.3.3 0 1 1-.5 0 .3.3 0 0 1 .5 0"/><path fill="#c27c67" d="M91 43.9q.8.1.5.8h-.1z"/><path fill="#524c41" d="m61.3 44.3.8 3q0 .2-.1.1-.5-.1-.5-.6V46l-.3-1.8V44z"/><path fill="#743f4c" fill-opacity=".2" d="M97.4 44.1q0 .5-.2.1z"/><path fill="#2c2925" d="M83.8 44.5q.2.4.5 0 .2.8.7 1.5l.2.6q0 1 .2 1.4.7 2.3.6 4.7l-.2 3a11 11 0 0 1-.9 2.9l-1 3.2q-.7 1.5-1.8 3l-2 2.7-2.4 2.5q-1.7 1.7-3.4 2.7-4.4 2.4-10 2.8-1-.3-2.1 0-.5.2-1 0l-.6-.4-.7-.2-3.2-.3a5 5 0 0 1-2.2-.4L52.7 73q-3.1-1.8-5.7-4.6a22 22 0 0 1-3.1-4.3q-1-1.7-1.4-2.7a10 10 0 0 1-.7-3q.4 0 .5.3l.4.2q.5 0 .3.2-.2 0-.1.5-.2.3 0 .6l1.4 1.7q.1 0 0 0l-.6-.1q-.5 0-.2.1 1 .7 1.3 1.5v.2q0 .4.2.6l.5.4 3 3.2.4.4.4.2 2 1.3 1.4.8q.6.4 1.5.7l2.9 1q.7.2 1.4.1a11 11 0 0 0 3 .3l1.2.1h.7l.6.2h.2l3.1-.7q3-.6 6.3-2.4 1.5-.8 2.6-1.7t2.3-2.1q1.5-1.6 2.7-3.6l1.6-2.8q.6-1.1 1-2.6.5-1.4.7-2.6l.3-2 .2-2a10 10 0 0 0-.6-4.4l-.1-.1q-.2-.2-.1-.4v-.2q-.2-.3-.4 0v.2q-.3.2-.3 0v-.2q.3-.4 0-.8v-.1q0-.5.2-.2zM73.4 71.6q.6.8 1.2.2l.1-.3q.1-.4-.2-.3l-.3.2zq-.1 0 0 .1"/><path fill="#111512" fill-opacity=".4" d="M98.4 44.5q.3.3 0 .3t-.2-.2a.1.1 0 0 1 .2 0"/><path fill="#a96e61" fill-opacity=".7" d="m92.4 44.6.3.3h.2q.2.4-.1.2h-.3q-.3-.1-.2-.5"/><path fill="#403222" d="M97.4 44.7q.6.2.4.7h-.1l-.7-.2q.3-.2.4-.5"/><path fill="#fff" d="M95.6 45.9v-.4l.1-.3.3-.3h.2v.3l-.2.4-.2.2z"/><path fill="#c27c67" d="m91 45.1.1.2-.2.9h-.2l-.1-.1.1-.9a.1.1 0 0 1 .2-.1"/><path fill="#6e6053" d="m88 45.3.2.2q-.1.2-.3.2l-.1-.2q-.3-.4.3-.2"/><path fill="#90554d" fill-opacity=".7" d="m93.8 45.8-.4.7h-.1q-.2-.3 0-.4h.1v-.5l.1-.1q.3-.3.3.1z"/><path fill="#443e38" d="M88.8 46q.1.2.5.1.2 0 .1.1l-.2.5q-.2.7-.3 0l-.3-.5-.1-.1q-.1-.4.2-.2z"/><path fill="#3a3630" d="m86 46.4 1.5 1.5.3.1 3.5 1.4.1.2.3 5v1.6q-.1.8 0 1.6l-.3 1.6-.2 1.5-1 4.7-.3 1-.2.8-.5 1q-.2.4.2.7-.9.3-.9 1.2 0 .4-.7 1.5v.1q.2.3.5.2h.2-.1q-1.2.2-1.4 1.5l-.1.2h-.1v.1l-.4.8-.7 1a3 3 0 0 1-.9 1.4l-.5.8-.3.6-.5.5-.9 1.2q-.4-.1-.2-.4l.2-.2 3.5-5.4.5-1 .6-1.2q.6-.9 1.4-3.2.1-.4-.2-.4l-.1.2-1.4 3q0 .2-.3.4l-.3.4-.4.7-1.2 1.4a29 29 0 0 1-5.2 6.1l-2 2h-.1l-.2.3-.2.1q-1 .6-1.5 1.3l-.3.2H75l-2 1.7a39 39 0 0 1-4.6 3.3 11 11 0 0 1-2.8 1.6l-.6.2q-.7.2-1 .5-.8 1-1.8.8.6-.5.4-1.2v-.1q.4-.3.2-.7 0-.3.2-.5h.1q.5-1-.3-.8l-.4.4-.6 1.4a5 5 0 0 0-.4 2l-5 1.2q-2.3.5-4.7.8l-2.4.2H42l-1.5-.3-1.5-.2q-2.6 0-5.2-.6l-2.4-.5q-.7 0-2-.6-7.3-3-13.2-6.8l-.5-.2-.8-.6q-.4-.4-1.5-1l-.2-.1q-.2 0 .1.2l1.8 1.6q.1.1 0 .2 0 .2-.2.3l-1.5-1.3-1.5-1.5-.4-.5-.4-.6-.5-.5-.5-.5-1-1.5q.4-.2.7 0h.6l.7.3.7.3 3.2 1 2 .9.5.4 2.4 2q.2 0 .8.6l.7.5.7.3q.8.6 1.6.8.3.1.2.5v.3q0 1.2.7.3l.5-.7.1-.1h.2q.3.3.7.3l.7.1.8.4.7.2q.8 0 1.5.2l1.9.1q1 .1 1.8-.2l1.2-.2h.2q.3.2.7.2l2.2.4 2 .1h1.4q.8-.5 1.4-.3.4.2.2.4v.3L41 92.1v.3l.1.2.4-.1.2-.3a8 8 0 0 0 1.5-2.1l.2-.2.3-.5q.1-.2.3-.2h1.1q.5.1.8 0l1.5.1h.9q.6-.2.8-.1.8 0 1.5.4l-1.2 2q-.3.5-.1 1 0 .3.3 0l1.6-2.6.3-.5q0 .3.2 0h.2q.5-.3 1.3-.4l2.9-.6q.6 0 1.2-.5t1.2-.2q-.1.3.1.6h.2q.6-.5.9-1.2l.5-.9 1-1.5v-.1h.7l1-.2 1-.4 2.6-1.7q.5-.2 1 0l-.4 1.3q-.3 1-.1 1.5t.5 0l.8-2 .3-1 .3-1 1.9-1.2q.5-.6 1.2-1.1l.2-.2.4-1.1.1-.2q.3-.2.1-.5h-.1a16 16 0 0 1-4.4 1.2h-3.9l-.5-.2.4-1.3q.3-.5.3-.9l-.4-.2q5.6-.4 10-2.8 1.7-1 3.4-2.7 1-.9 2.3-2.5l2.1-2.7 1.7-3q.7-1.6 1.1-3.2.7-1.4.9-3 .2-1.2.2-2.9a14 14 0 0 0-.6-4.7q-.2-.3-.2-1.4.5.4.7-.2M75.5 75.6q-.5-.3-.1.7l.1.1q.6-.2.6-.7h-.4zm-.7 2.5-.1.9v.4q.5.7.6.1L76 77v-.1h-.1q-.6 0-.6-.4l-.1-.1-.1.2zM32.4 93.2h.5q.2 0 .3-.3l.5-1.3.5-.6q.4-.5.3-1 0-.4-.3-.3l-.2.2a13 13 0 0 0-1.7 3z"/><path fill="#743f4c" fill-opacity=".2" d="m94 46.5-.4.8q-.2 0-.2-.2l.4-.6q.3-.2.2 0"/><path fill="#6a5133" d="M95.8 46.5q.2.2.1.4l-.1.1-.4.1q-.1-.5.4-.6"/><path fill="#050504" d="m72.8 46.6.5.1h.1q1 0 1.7.9l.6 1q.3.8 0 1.4h-.2l-.3.1q-.2.2 0 .1l.4.1v.3l-.6 1.9q-.8 1.4-2 2.5l-.5.6-.6.5-.4.6-1 .6-3.5 1.4-.7.2-.9.2-1.2.2-.9.2-1.7.4h-.1v.1h.2q.5 0 .4.4l-.1.2-.2.5q.3 0 .3-.2t.2-.1v.1a10 10 0 0 1 .2 3.6 5 5 0 0 1-.4 3.1l-.2.3-.2.4q-.1.5-.5.7l-.7.4q-1.8.7-3.4-.3-.6-.3-.8-1a12 12 0 0 1-.8-3.5V61a1 1 0 0 0 .3-1h-.2l-3.6-.7q-.5-.1-.2-.6.1-.2 0-.2h-.1v.1l-.1.1h-.2l-1.4-1-.4-.4q.4 0 .5-.3l-.1-.1q-.5-.3-.4.4a3 3 0 0 1-.7-1.4v-1l.2-1.1.6-1q.2-.4.5-.6l.6-.5 1.4-.6q.1.5.6.4 0 .2-.2.2v.2l.2.3.2.2q.2.2.2-.3V52q.1-.4 0-.8.7-.2 1.2 0l.1.2q1.1 0 2.1.3h.8q.6-.1 1.2.1v1q-.3.4 0 .7l.1.1h.1l.5-.3.7-.1q.6-.3.8.4v.2L60 55q-.8 1.2-1.3 2.5-.1.4.2.1t.6-1l.4-.8.4-.7.6-1.3.8-.9q.2-.2 0-.2l-.2.1q-.3.4-.6 0l-.2-.2h-1.6l-.4-1q.6-.2 1.3-.1l1.9-.2a4 4 0 0 1-.4-2v-.8q.4.2.3.5-.2.6.5.4.4.4.2.9l-.5-.1q-.4 0 0 .4l.2.2q.3.5.6.3l.7-.1.4-.3 2.7-1.2 2.3-1 .4-.2q1.7-1.4 3.5-1.8m.6 1q0-.7-.5-.2h-.2L71 48l-.8.3-.7.4-.6.5-1.2.6q-.7.3-1.3.8h-.2L65 51q-1 0-.6.2.3.2 1 0l1.2-.4.7-.4q.3-.5.7-.4l.6-.2 2.6-1.6q1-.6 2.2-.4.7.2.3.7t-.8.7h.6l.4-.5q.2-.4.6-.5h.2q.1.3-.3.8v.2q.3.1 0 .5-.1.2 0 .2.5-.1.7-.4v-.7l.1-.6-.3-.5h-.2q-.5.5-1.2 0zM71.8 49l-.3.2h.3zm-.6 2.5L71 51v-.3q.1-.6.5-1v-.1l-.5.2-.5 1.4v.1h.1q.2.2.5.1m2.4-1v-.2l-.2-.2h-.1v.2l.1.2zm1.1 0q-.1.2.1.2t.4-.3v-.1q-.3-.2-.5.2m-1.3 1 .2-.1.1-.1.2-.2.2-.4v-.2h-.2l-.1.2-.2.2-.2.3zm-4.9-.7h.2v.2q.1.3.4.1h.2q.5 0 0-.3zm1 1.4a2 2 0 0 0-1 .8l-.6.7q-.2.1-.2-.1.1-.7.6-1.2V52q0-.3-.3-.3h-.1l-.2 1.1-.3.8-.5.8v.2l-.1.7q-.3.3-.4.7v.2l-.1.7q-.3.4.3.2.4-.2.2-.5v-.4q.2-.5.1-.8.1-.3.5-.3V55q-.3-.3 0-.6l.2-.6.2-.1q.5 0 .6-.4t.8-.6q.4 0 .6.2-.1.7.3.4l.1-.2.2-.7h.2q.8 0 .6.7l.6-.4q.1 0 0 0h-.2l-.1-.1h-.1l-.9-.8-.2-.5v-.1q-.4-.3-.3 0v.2q-.2.4-.6.6m-1.2-.5.2-.2v-.1H68zm-4.5.2q.2 0 .1-.4h-.1q-.4 0-.2.3zq0 .1.1 0m8.4 0v-.3h-.2v.1zm-18 .2v-.2h-.3a.1.1 0 0 0 0 .2zm1.3.1v-.2h-.1v.2m4.7 0v.3q.7.3.8-.3v-.2q-.5 0-.8.2m2.9-.2h-.2l-.3.1-.2.3v.1h.2l.3-.3h.1zm9.8 0q-.2 0-.2.2 0 .5-.3.7v.1l.2-.1.4-.3v-.5m-7.8.7a7 7 0 0 0-1.2 2.2l-1.1 2v.2q0 .3.3 0 .7-.9 1.1-2.4l.4-.9.4-.8q.3-.5.9-.7V52q-.6 0-.8.5m6.8-.2.2-.2V52h-.3zm2.1 0-.3.7q0 .1.1 0 .5-.2.6-.7v-.2q-.3-.1-.4.1m-19.5 1.1v.1l-.2.2q-.8.3-1.1 1.1l-.5.9-.3.2-.3.3q-.2.8-1 .8v.1q.2.5.6.4.2 0 .5-.5l1.3-1.8h.2q.7 0 .3.5l-1.3 2-.5.5v.1l.3.1.4-.2.4-.6.3-.6q0-.4.5-.8.2-.2.1-.5v-.2q.8-.7 1.3-1.4.2-.2 0-.3H55l-.3.2-.2.2q-.2 0-.1.3v.2q-.5 1-1 .1-.2-.3 0-.5l.8-.7zq-.4-.5.2-.7l.1-.2q.2-.3.4 0 .5.4.8 0v-.2h-1.2q-.5-.2-.5.3t-.4.3H53l-.5-.2q-.4 0-.7.4-.2.1 0 0 .8-.5 1.3.2h.1l.2-.1V53l.8.2zm19.2-1-.3.1v.1l.1.1h.2l.1-.2zm-16.3.5h1q.3-.2 0-.4h-.8q-.7-.3-.7.2 0 1.2.4.2zm7.9 2.9-.6 1.7v.4q.2.4.4 0l.5-2 .7-1.8q0-.3.3-.2l.1-.1q.3-.5.1-1v-.1h-.1q-.4 0-.5.3v.2l-.3.8v.2zm-3.7.2q.2.5.3 0 .2-.7.6-1.1l.5-1 .8-1.2q0-.1 0 0-.7 0-1 .6-.4 1.2-1 1.9zm-11.1-2.8q-.2.5 0 .6.4.1.6-.2.3-.7 0-.9h-.2zm22.3.8q-.4.2 0 .4h.1q.7-.6.2-1.5h-.1q-.6.4-.2.6.2 0 .1.3zm-17.2 2.3.3-.4.5-.7.4-.6 1-1q.3-.2 0-.2h-.2l-.6.4-.3.2-.2.4-.2.3q-.7.7-.9 1.5v.1q-.9.7-1.3 1.6l-.2.2.1.3h.2a5 5 0 0 0 1.2-2zm13.3-2.7q0 .5.2.2l.2-.2q.5-.3-.1-.2zM55.4 58h.3l.9-1.8q.2-.7.8-.4 0 .1 0 0l-.1-.4V55l.8-1.6q-.4 0-.4.4v.2l-2.3 3.4h-.2q-.3.2.2.4m-4.1-4a.1.1 0 0 0 0-.2q-.5-.4-.4.2v.2q0 .3.4-.3m19.7 0-.7 1.8.2.5h.1q.3-.2.1-.6v-.6zv-.2q0-.2-.1 0m-19.2.5-1.2 1.5-.3.4q-.3.3 0 .5h.2l1.2-1.7h.1q.4-.1.3-.6l.4-.2h.1q0-.2-.2-.2-.5 0-.6.4m7 0-.5.8-.1.1-.6 1.4q-.2.3-.5.4l-.1.2q-.1.6-.5 1.2v.1q0 .1.1 0 .3-.5.9-.8v-.1q-.1-.2 0-.4l.2-.2.3-.5.2-.5.5-.5.1-.2q.2-.6.6-1l.1-.2h-.3zm10.5-.1-.4 1-.4 1.6v.1q0 .2 0 0 .6-1.1.8-2.3l.4-.6v-.1h-.2zm-19.1.4H50l-.1.2v.1h.3zm4.3 1h-.3v.2h.2zm6.2 2.7q.3.3.3-.1v-.6l.3-.7q0-.3-.2-.1a1 1 0 0 0-.5.9v.3zm1.8-.2q.4 0 .7-.6l-.1-.1q-.8 0-1 .5l.2.1zm-8.7 1v-.2h-.1l-.8-.4-.3.1.1.3.8.3zm2.4 2.7-.2-.1h-.1V63q0 .2.3.2l.4 2.1.3 1.6.6 1.4q.5.5 1.2.7l1.1-.1q.6-.2 1-.7a4 4 0 0 0 .7-2l.1-2a11 11 0 0 0-.6-4.3v-.4h-.1q-.4.1-.7-.2-.6-.6-1.3-.6h-.5q-1.1 0-1.8 1l-.3.7.1.8q.1.4-.2.6m-2-2.7q.6.4 1.4.2.2 0 0 0l-1-.3zq-.5-.1 0 .1m7.6 3v.2a.1.1 0 0 0 .2 0q.2 0 0-.2zM56 64.4q-.3-.3-.4 0v.2q.1.3.4 0a.1.1 0 0 0 0-.2m5.7.3v.5q.1.6.3.5l.1-.2v-1q-.3-.1-.4.2m-.2 2.3-.2.6q-.1.5.1.3h.1v-.1l.2-.3q.2-.3 0-.5 0-.3-.2 0"/><path fill="#13100e" d="M91.7 46.8q.5.2.7.7v.3q0 .2-.4 0h-.2l-.1-.2z"/><path fill="#6a5133" d="M93.4 47.1q0 .2.2.2l-.4.7v.1h.5l-.7.3V48a.1.1 0 0 1 0-.2z"/><path fill="#443e38" d="M73.4 47.8q.7.4 1.2 0v-.1h.2l.3.5v1.3l-.7.4q-.2 0-.1-.2.3-.4 0-.5V49q.4-.5.3-.7h-.2l-.6.4-.4.5h-.6q.5-.3.8-.7.4-.5-.3-.7-1.2-.2-2.2.4l-2.6 1.6-.6.2q-.4 0-.7.4l-.7.4-1.2.3q-.7.2-1 0h.8l1.2-.5h.2q.6-.5 1.3-.8.7-.2 1.2-.6l.6-.5q.3-.3.7-.4l.8-.3 1.6-.5.2-.1q.5-.5.5.2z"/><path fill="#3b3732" d="M61.6 48.4q.3.3.7.1v1q-.7.2-.5-.4.1-.3-.3-.5z"/><path fill="#25211c" d="m71.8 49-.3.3h-.1v-.1z"/><path fill="#443e38" d="M41.2 49.8v.1H41l-.4-.2v-.1l.1-.2h.2l.4.2zm30.2 0q-.4.4-.5 1v.3l.1.3v.1h-.5v-.2q.1-.8.4-1.4l.4-.2q.1 0 0 0"/><path fill="#25211c" d="M73.5 50.5h-.2l-.1-.3V50h.1l.1.1.1.3"/><path fill="#2c2925" d="M75 50.4q-.1.3-.4.3-.2 0-.1-.2.2-.4.4-.3a.1.1 0 0 1 0 .2"/><path fill="#3b3732" d="M62 50.3h.5q0 .6.3 1-.3 0-.6-.4l-.2-.2q-.4-.5 0-.4"/><path fill="#25211c" d="m84 51.2-.2-.1.1-.5.1-.2a.1.1 0 0 1 .2 0v.6z"/><path fill="#3b3732" d="M41.3 50.6q.3.3-.1.5H41q-.8-.5 0-.6h.2"/><path fill="#25211c" d="M73.2 51.4V51l.4-.3.1-.1h.2q0-.1 0 0v.3l-.4.4h-.1zm-4.1-.7q.5.3 0 .3H69q-.3.2-.3-.1l-.1-.1h-.2q-.6 0 .6-.2z"/><path fill="#090706" d="M30.7 51.5q.5.2.6.5l.2.2 1.6 1.3q.4.5 0 .5h-.2v.1l.2.5.1.2q.2.2.2-.2v-.2q.1-.3.4 0l.2.2q.7 1.3 1 2.8v.2q-.4.4 0 .9v.1a5 5 0 0 1-.7 2.5v.2q0 .7-.5 1.4l-.8 1-1.4 1.2q-.7.5-1.4.7a11 11 0 0 1-3 .4l-.3.1-1 .2a6 6 0 0 1-2.6-.4q-.8-.3-1.7-1l-1.3-1.4-1.2-1.6-.1-1.2v-.2l-.2-1.2v-1a12 12 0 0 1 1.6-4.3q.3-.6 1.8-1.5.5-.8 1.4-1 1-.4 2-.5l2.2-.1q1.4 0 3 .6m-7 1-.6.4a7 7 0 0 0-2.5 3.6l-.2.7a1 1 0 0 0-.2 1l-.4 1.9v.8q-.2.5.4.3v.7l1.2 1.6.1.1h.4l.1.2q.2.4.5.6l.6.5q.7.4 1.4.4H26q.4-.2 1 .2h.1q.1-.4.5-.3 1 0 2.3-.5h.2q.5-.1.7-.5l.3-.2q1.4-1 2-2.5l.2-.8.6-1.4v-.4l-.2-1.3v-.1l-.3-.5-.4-1.3-.1-.1-.2-.6v-.4l-.1-.2-.8-.6q-.6-.3-.5-1l-.3-.1h-.1v-.1q-.3-.2-.5-.1-1.6-.8-3.8-.6-1.8.1-2.8.6m10 4 .3-.1q.1-.7-.4-.3-.2.3 0 .5"/><path fill="#25211c" d="M53.3 51v.9l-.1.2q0 .5-.2.3l-.2-.2-.2-.3v-.1q.3 0 .3-.2v-.1h-.1q-.5.1-.6-.4zm16.8.4.2.5-.7 1q-.2-.2-.6 0 .4-.3.2-.8.4-.2.6-.5v-.2q-.1-.4.2-.2zm-2 .2v-.1l.2-.2q.1 0 0 0zm-4.4-.2q.1.3 0 .4h-.2q-.3-.3 0-.4a.1.1 0 0 1 .2 0m8.3.3-.1-.2v-.1h.1l.2.2"/><path fill="#13100e" d="M83.8 52.4V52l.3-.2.1-.1h.2v.2l-.1.3-.3.2z"/><path fill="#25211c" d="M54 52h-.2v-.2h.2z"/><path fill="#3a3630" d="M55.3 52h-.1v-.2h.1q.1 0 0 0z"/><path fill="#312f2a" d="M58.6 51.7h.1q0 .6.4 1l.2.5-.5.3h-.2q-.3-.4 0-.7v-.2z"/><path fill="#25211c" d="M60.7 52q-.1.6-.7.3V52q.2-.2.6-.2h.1a.1.1 0 0 1 0 .2"/><path fill="#2c2925" d="M62.8 51.8v.1l-.2.1-.3.2-.1.1H62q-.1 0 0 0V52l.4-.1.1-.1z"/><path fill="#443e38" d="M67.8 51.8q.3 0 .3.3v.2a2 2 0 0 0-.6 1.2q0 .2.2 0 .4-.2.6-.6a2 2 0 0 1 1-.8q0 .5-.3.7-.7.2-.8.6t-.6.4l-.2.1q0 .3-.3.6t0 .6q.2 0 0 0-.3.1-.4.4h-.1v-.8l.1-.2.5-.8.3-.8z"/><path fill="#f7efd6" d="m30.3 52.5-.1.5-.7-.3q-.4-.3-.6 0h-.5a5 5 0 0 0-2.2 0l-.6-.2-1 .5-1.2.7a1 1 0 0 0-.8.5l-.5.7-.5 1.2q-.2.5-.6.8-.3 0-.3-.4a7 7 0 0 1 2.5-3.6q.8.5.5-.4 1-.5 2.8-.6 2.2-.2 3.8.6"/><path fill="#25211c" d="M72.7 52v.3l-.1.1-.4.3-.2.1v-.1q.2-.2.3-.7 0-.2.2-.2h.1z"/><path fill="#524c41" d="m70.3 51.9.9.8h.4q.1 0 0 .1l-.5.4q-.1 0 0 0 .1-.7-.7-.7h-.2l-.2.7v.1l-.1.1q-.4.3-.3-.4t.7-1.1"/><path fill="#605449" d="m65.7 52-.1.2-.9.7-.4.8-.4 1q-.4 1.4-1.1 2.3-.3.3-.3 0v-.2q.7-1 1-2a7 7 0 0 1 1.3-2.2q.2-.5.8-.6z"/><path fill="#25211c" d="M71.6 52.4v-.2l.1-.2h.1v.4z"/><path fill="#312f2a" d="m74.1 52.4-.6.8.2-.9q.1-.2.3-.1h.1z"/><path fill="#524c41" d="M55.8 52.4q-.3.5-.8 0-.2-.2-.4.1l-.1.2q-.6.2-.2.7v.2l-.7.7q-.3.2-.1.5.5.8 1 0v-.2l.1-.4.2-.2.3-.1a.1.1 0 0 1 .2 0v.2l-1.4 1.4v.2q.1.3-.1.5-.4.4-.5.8l-.3.6-.4.6-.4.2H52v-.1l.5-.6q.5-1 1.3-2 .4-.4-.3-.6h-.2l-1.3 2-.5.4q-.4.1-.6-.4.8-.1 1-.8l.3-.4.3-.2.5-.9q.3-.8 1.1-1.1l.2-.2a.1.1 0 0 0 0-.2H54l-.7-.2h-.1l-.2.2q-.5-.7-1.3-.2-.2.1 0 0 .3-.5.7-.4l.5.2h.8q.4 0 .4-.3 0-.5.5-.3h.1q.6-.2 1 0z"/><path fill="#312f2a" d="M73.3 52.4v.2l-.2.1h-.2v-.2l.2-.2h.2"/><path fill="#89634b" d="M30.9 52.7h.3v.2q-.1.6.5.9-.1.2-.4.2t-.4.2h.1q.4.1.3.4l-.1.2-.2.4-.1.4q-.1.2-.5.1-.5-.3-.8.3v.1q.2.1.2.3l-.1.1q-.4.3 0 .6v.1q.2.5.6.7h.2q.1-.5 0-.8-.1-.2 0-.1.6.1.8-.3v-.1q.5.2.4.6v.1h-.2q-.5.3-.9.8-.2-.2-.4 0l-1-.8q.3-.7-.1-.4l-.2-.6q-.2-.4.1 0l.3.1h.1a1 1 0 0 1 .2-1v-.6l-.1-.2-.1.2-.3.4-.2.2q-.3.4-.1-.2v-.1l1.1-1.4.2-.1q.2 0 .2-.2v-.2q.3-.3-.1-.2v-.5h.5v.1zm-.7 2q-.4.7 0 .7l.4-.1q.2-.2-.1-.5z"/><path fill="#605449" d="M57.2 52.6h.7q.4 0 0 .2-.3.2-.9 0l-.1.1q-.4 1-.4-.2 0-.5.7-.1"/><path fill="#af6c54" d="M23.7 52.5q.3.9-.5.4.2-.3.5-.4"/><path fill="#685b4f" d="M66.4 52.6q.2.5 0 1h-.2q-.4 0-.3.3v.2l-.7 1.8-.3-.1.6-1.8v-.2l.2-.8.1-.2q.1-.3.5-.3z"/><path fill="#443e38" d="M25.6 52.5q-.4.2-.4.5l-.2.6-.3.5a2 2 0 0 1-1 1.2h-.3l-.2.2q-.1.5-.6-.1a.2.2 0 0 0-.4 0l-.8 2-.7 1.3-.1-.4q.4-.4.4-1V57q.4-.3.6-.8L22 55q.5-.2.9.2h.7l.2-.1q.7-.9.8-2 .4-.4.9-.5"/><path fill="#c27c67" d="m25.6 52.5.6.2.4.2h.1v.3l-.2.6a1 1 0 0 1-.7.8h-.1l-1.4 2.9a4 4 0 0 1-1 2v.1H23q-.3 0-.3.3l.3.7.3-.3v-.5l.8-1.2 1-2.3.4-.5q.2-.3.2-.7l.8-1 1 .2a1 1 0 0 1 .3-.9l.1-.2q.1-.4-.2 0l-.9.7h-.2l-.1-.1q.3-.9 1.1-1h.2q.3 0 .5-.2l.5.1q.2.7-.3 1.2t-.5.9v.1h.1l1.2-1.8v-.4q.4.3.8.3t.2.2v.2q-.1.2-.3.2l-1.2 1.5v.1q-.2.6.1.2l.2-.2.3-.4v-.1q.2-.1.2 0v.8q-.2.4-.2.9l-.4-.2q-.3-.3-.1.1l.2.6a33 33 0 0 0-3.2 6.8q-.1.4-.5.4v.1q.9.4 1.7.3.7 0 1-.9v-.2q-.2-.3 0-.5l.2-.4 2.3-4.4 1-.7v-.2q.2-.4-.2-.6h-.1q-.2.5-.8.4-.1 0 0 0 .1.4 0 .8v.1h-.2q-.4-.2-.5-.7l-.1-.1q-.4-.3 0-.6l.1-.1-.1-.3V56q.2-.6.7-.3l.3.4h.1q.5-.4.7-1 .1-.3.4-.3-.2-.7-.6-.8.3 0 .4-.2l.8.6.1.2v.3q.2.3.2.7v.1q.4.6.5 1.3l.3.4v.2l.2 1.3v.3l-.6 1.5-.3.8q-.5 1.5-2 2.5l-.2.2q-.2.4-.7.4h-.2q-1.2.6-2.3.6-.4 0-.5.2-.7-.3-1.1-.2l-.8.1h-.5a2 2 0 0 1-1.4-.4l-.6-.5-.5-.6-.1-.1h-.4l-.1-.2-1.2-1.7v-.6q-.5-.3-.1-.8.1-.2-.3-.3l.4-1.8h.3v.4h.1q.5-.5.7-1.2l.8-2a.2.2 0 0 1 .4-.1q.5.6.6.1 0-.2.2-.1h.2a2 2 0 0 0 1.1-1.3l.3-.5.2-.6q0-.3.4-.5m6.6 3.9q.4.1.5-.2V56q0-.2-.2-.2l-.2.1-.2.4a.1.1 0 0 0 0 .2m-5.6.1-.5.4q0 .1 0 0l.6-.1q.5 0 .1-.2zm6 1.2-.3-.1H32l-.4.5-.4.4q-.3.3-.3.7v.5l-1.3 2.4q-.3 1.5.1.2v-.1l1.3-2v-.6q0-.8 1-1 .1 0 0 0-.3-.2 0-.6a.1.1 0 0 1 .2 0l.3.6q.3.6-.3.7H32q-.3.4.2.3l.2-.1q.6-.4.3.3-1.2 1.4-1.8 3-.2.5.2.1 1-1.4 1.6-2.9.4-1-.1-1.9V58q.5-.2.4-.6V57q-.1-.5-.4-.2v.2q.1.4 0 .8m-10-.3q.2-.1.3-.4 0-.5-.3-.3l-.2.2-.4 1 .1.2h.1l.3-.6zm2.7.1h.1l.2-.6v-.1l-.1.1-.2.3q-.3.2 0 .3m2.6-.6v-.1h-.2L25.3 61l.1.2zm-3 3.2v-.4l-.3-.3H24v.2l.1.1.1.2.3.2zm-3.9-.4-.1-.1h-.1v.7l.5.5q.2.2 0-.1v-.4q.1-.2.4-.3.3-.2.4-.5 0-.3-.2 0l-.7.3zm2.2 1.3q-.9-.4-1.3.4-.3.6-.6.8v.1h.1q.5-.3.8.1v.1h.5q.4.3.2 0v-.1h-.2l-.7-.3v-.1l.4-.8h.1q1 .4 1.2-.5 0-.1 0 0l-.3.3a.1.1 0 0 1-.2 0m2.3.8q.6.1.2-.2l-.1-.2q-.2-.7-.2.4m-1.8 1.8q0 .2-.1 0l-.4-.2q-.1 0 0 .1l.7.6q.1 0 0 0-.3-.9.3-1.2v-.4q.2-.6 0-.1h-.2q-.5.6-.3 1.2"/><path fill="#6a5133" d="M28.4 52.6q-.2.3-.5.2h-.2q-.8.1-1.1 1h-.1l.2-.6V53l-.1-.1-.4-.2a5 5 0 0 1 2.2 0"/><path fill="#524c41" d="m29.5 52.7-.1.4-1.1 1.8a.1.1 0 0 1-.2 0v-.1q.1-.5.5-1t.3-1q.2-.4.5-.1"/><path fill="#83786e" d="m63.4 52.7-.8 1.2-.5 1-.6 1h-.3q0-.3.3-.7.5-.7 1-1.9.2-.5.9-.7"/><path fill="#090706" d="M50.7 52.7q.3.2 0 .9-.2.3-.6.2-.2 0 0-.6l.4-.4a.1.1 0 0 1 .2 0"/><path fill="#716257" d="M60.5 52.7h.2l.2.2q.3.4.7 0 .3 0 0 .1l-.7 1-.6 1.2q0 .3-.4.7l-.4.8-.6 1q-.3.3-.2 0 .5-1.4 1.3-2.6l.7-1.4v-.2q-.1-.7-.7-.4l-.7.1-.2-.4z"/><path fill="#25211c" d="M72.7 53q.5.8-.2 1.4h-.1q-.4-.2 0-.4l.1-.2q.1-.2-.1-.3-.4-.2.2-.6h.1"/><path fill="#af6c54" d="M24.7 53a3 3 0 0 1-.8 2h-.2l-.6.1H23q-.4-.4-1-.2l.6-.7q0 .6.1.2v-.1l.7-.6z"/><path fill="#685b4f" d="m28 53.4-.3.8v.1l-1.1-.2V54h.3l.9-.7q.3-.4.2 0z"/><path fill="#524c41" d="M57.4 53.4q.3 0 0 .1l-1 1-.4.7-.5.7-.3.4H55v.1a5 5 0 0 1-1.3 2h-.2q-.2-.1 0-.3v-.2a5 5 0 0 1 1.3-1.6l.1-.1q.2-.8 1-1.5l.1-.3.2-.4.3-.2.6-.4z"/><path fill="#25211c" d="M68.8 53.8q-.3.3-.3-.2l.3-.2q.6 0 0 .2z"/><path fill="#685b4f" d="m58.1 53.5-.8 1.6v.2l.1.4q0 .1 0 0-.6-.3-.8.4l-.9 1.8h-.3q-.5-.2-.2-.3l.2-.1 2.3-3.4V54q0-.4.4-.5"/><path fill="#25211c" d="M51.3 53.7a.1.1 0 0 1 0 .2q-.4.5-.4.2V54q-.1-.6.4-.2"/><path fill="#524c41" d="m71.1 53.8-.4 1.1v.6q.2.4 0 .6a.1.1 0 0 1-.2 0q-.3-.3-.2-.5l.7-1.9q0-.2.1 0z"/><path fill="#716257" d="m23.4 53.7-.6.6q-.2.5-.2 0a1 1 0 0 1 .8-.6"/><path fill="#443e38" d="m52.4 53.8.2.1v.1h-.1l-.4.4q-.1-.2-.3-.2 0-.5.6-.4"/><path fill="#2c2925" d="m26.5 53.8.1.1v.2l-.8 1q0 .4-.2.7l-.3.5-1.1 2.3-.7 1.1v.2l-.1.4q-.2-.6-.6-.4 0-.3.3-.2h.1v-.1q.9-1 1-2.1l1.5-2.8.1-.1a1 1 0 0 0 .7-.8"/><path fill="#716257" d="M59.4 54.2q-.4.4-.6 1v.2q-.4.2-.6.5l-.2.5-.3.5-.3.2.1.4v.1q-.6.3-.9.8 0 .1-.1 0L57 57q.4-.2.6-.5l.6-1.4V55l.7-.7.3-.3h.3z"/><path fill="#6e6053" d="m69.8 54-.4.6-.7 2.3q0 .2-.1 0 .1-.9.4-1.7 0-.6.4-1l.2-.2.1-.1z"/><path fill="#443e38" d="M31.3 54q.4.1.7.7v.1q-.4 0-.5.4-.2.5-.6.9a.1.1 0 0 1-.2 0l-.3-.4.5-.1v-.4l.3-.4.1-.2q0-.3-.3-.3v-.1q0-.2.3-.2"/><path fill="#83786e" d="M51.8 54.2q.2 0 .3.2.1.4-.3.4l-.1.1-1.2 1.7h-.1q-.4-.2-.1-.5l.3-.4z"/><path fill="#25211c" d="M41.5 54.8h-.2v-.3h.1z"/><path fill="#312f2a" d="M50.3 54.6v.3h-.4v-.3z"/><path fill="#c27c67" d="M30.5 54.7q.3.3 0 .5l-.3.1q-.4 0 0-.6z"/><path fill="#25211c" d="M41.9 55.5q.2.4-.1.4l-.2-.1v-.1q0-.6.3-.2"/><path fill="#716257" d="m66.6 55.4.1.1q.1.3-.1.8v.4q.2.3-.2.5-.6.2-.3-.2t.1-.7V56q.1-.4.4-.7"/><path fill="#443e38" d="M54.6 55.6v.1h-.1l-.1.1h-.1v-.2h.2m-22 0q.2.1.2.3v.3q0 .3-.5.2a.1.1 0 0 1-.1-.2l.2-.4zm32.4 0q0 .3.3.2l-.5 2q-.2.4-.4 0v-.4q.1-.9.6-1.7m-3.4.1q-.1.6-.3 0z"/><path fill="#3a3630" d="M34 56.4a.2.2 0 0 1-.3.2q-.3-.2 0-.5.4-.4.3.3"/><path fill="#f7efd6" d="M72.7 56.4a23 23 0 0 1-4 2.4l-1.2.5q-.7.2-1.3.6-.4.2-.2-.4l.1-.1.2-.2.7-.5 3.5-1.4 1-.6q.5 0 .9-.4.2-.3.3 0"/><path fill="#3b3732" d="M41.3 56.5q-.1.2 0 .4l.3.1.2.4.1.1q.2.1.3-.1 0-.4.3-.3a.1.1 0 0 1 0 .2l-.3.4-.1.1-.4.4v.1l.1.2q.2 1.6.7 3 .4 1 1.4 2.7a22 22 0 0 0 3.1 4.3q2.6 2.8 5.7 4.6l1.8 1q1 .5 2.2.5 1.6 0 3.2.3.4 0 .7.2l.7.4q.4.2.8 0 1.2-.4 2.2 0l-.5.3q-.1.6-.5 1.2-.3.4-.1.8l-.4.3h-.5l-.2-.1-1-.2-5-.4-2-.6-1.4-.6-1.7-1-1.4-1a27 27 0 0 1-4.2-3.5l-1.2-.7-.1-.2-.4-1-.7-1.1-.4-1.2a30 30 0 0 0-1.8-4.6l-.6-2.4q-.2-.8-.1-2 0-.7.5-.9h.2q.2.2.3 0t.2-.1"/><path fill="#af6c54" d="M26.7 56.6q.4.2-.1.2l-.5.2H26l.5-.5z"/><path fill="#b8b599" d="M20.7 56.5q0 .4.3.4v.4h-.5z"/><path fill="#524c41" d="M33 57.3q.1.4-.3.6h-.1v-1.1q.3-.3.3.2zM22.9 57q0 .3-.3.4l-.1.1-.2.5-.2.1q-.1 0 0-.2 0-.4.3-1l.2-.2q.4-.2.3.3"/><path fill="#2c2925" d="m29.2 57.3-.6.9-1 2.4-1.3 3.2q-.2.5.3.6 1 .2 1-.7v-.2q.3-.4.2-1l.4-.5 1.2-2.7.8-1.1q.2-.3.4-.1l-2.3 4.4-.2.4q-.2.2 0 .5v.2q-.3.8-1 .9-.8 0-1.7-.3.4-.1.5-.5a33 33 0 0 1 3.2-6.8q.4-.3.1.4"/><path fill="#312f2a" d="M61.1 56.8q.2-.2.2 0l-.3.8v.6q0 .4-.3.1l-.1-.3v-.3q0-.6.5-1"/><path fill="#3b3732" d="M50 57q0 .4-.4.4v-.1q0-.7.4-.4z"/><path fill="#685b4f" d="m25.4 57-.1.6h-.1q-.4-.1-.1-.3l.2-.3z"/><path fill="#2c2925" d="m27.5 56.8.1.1-2 4.2h-.2z"/><path fill="#f7efd6" d="m20.5 57.2.5.1a1 1 0 0 1-.4 1h-.3a1 1 0 0 1 .2-1"/><path fill="#c77f6d" d="M29.2 57.3q.7.3 1 .9l-.8 1.1-1.2 2.7-.3.4-.1.2-.2 1v.1q0 .9-1 .7-.5-.1-.3-.6l1.2-3.2q.7-1.2 1.1-2.4zm-.3 1.6q.7.2 0-.2h-.1z"/><path fill="#524c41" d="M63.2 57.6q-.3.6-.7.5h-.2l-.2-.1v-.1q.3-.5 1-.5a.1.1 0 0 1 .1.2"/><path fill="#89634b" d="m32.2 57.7.4.1v.4q.5 1 .2 1.9v-.2q.2-.7-.4-.3l-.2.1q-.5.1-.2-.3h.2q.6-.1.3-.7l-.2-.5a.1.1 0 0 0-.3 0q-.3.3 0 .5.1 0 0 0-1 .2-1 1v-.4q0-.4.3-.7l.4-.4.4-.5z"/><path fill="#524c41" d="m52.9 58.4.8.4v.2l-.1.2-.9-.4v-.2z"/><path fill="#89634b" d="M29 58.6q.6.4-.1.2l-.1-.1z"/><path fill="#cf492a" d="m58.5 58.6-.2.6q-.2.6.4.9l.2.1q.2.6-.3.3-.5-.5-.3.2l.2 1.7v.2q.4.5.3 1.2l.2 1 .1.1h.3v-.3l-.1-2-.3-3.2v-.3q-.2-.3-.1-.5.7 0 1.3.7.3.2.7.1h.1v.4q.8 2.1.6 4.3v2a4 4 0 0 1-.8 2q-.4.5-1 .7h-1a2 2 0 0 1-1.3-.6l-.6-1.4-.3-1.6-.4-2.1v-.9q-.2-.2 0-.5t.2-.6v-.8l.2-.8q.7-.8 1.9-1"/><path fill="#25211c" d="M58.5 58.6h.4v.5l.1.3.3 3.2v2.2q0 .2-.2.1v-.2l-.3-1q.1-.6-.2-1v-.3l-.3-1.7q-.2-.7.4-.2.4.3.2-.3l-.2-.1q-.6-.3-.4-1z"/><path fill="#443e38" d="m54.5 58.9 1.1.3q.2 0 0 0-.8.2-1.4-.1-.4-.3.1-.3z"/><path fill="#fff" d="m24.1 59.4-.1.1v.2l.1.1.1.2.3.2h.2v-.4l-.4-.3z"/><path fill="#443e38" d="M21.9 59.6q0 .3-.4.5-.3.1-.3.3v.4q0 .3-.1 0l-.5-.4v-.7l.2.1.1.1h.1l.7-.3q.3-.3.2 0"/><path fill="#faf3df" d="M64.8 59.6h.7q.3.1.1.4l-.8.3-2.3.2h-.1q-.3-.5.3-.7l1.5-.2z"/><path fill="#443e38" d="M31 59.7v.6l-1.2 2q-.5 1.4-.2-.1l1.3-2.4z"/><path fill="#716257" d="m23.4 60.3-.3.3-.3-.7q.4-.2.6.4"/><path fill="#2c2925" d="m32.7 60-1.6 3q-.4.3-.2-.2.6-1.6 1.8-3"/><path fill="#443e38" d="M20 60.1q.3 0 .2.3-.4.5.1.8-.6.2-.4-.3V60"/><path fill="#25211c" d="M43.5 60.6q0 .1 0 0h-.1q0-.8.1 0"/><path fill="#605449" d="M23.5 60.9q-.3.9-1.2.4l-.1.1-.4.7a.1.1 0 0 0 0 .2q.3.3.7.3h.2q.2.4-.1.2H22l-.1-.2q-.3-.4-.8 0H21v-.2q.3-.2.6-.8.4-.8 1.3-.4a.1.1 0 0 0 .2 0z"/><path fill="#9e6950" d="M25.5 61.8q.4.3-.2.3v-.5z"/><path fill="#403222" d="M56 61.6h.2q-.2.4 0 .6v.9q-.2 0-.3-.2zm6 .4q.3.2 0 .3h-.1z"/><path fill="#89634b" d="M24 62.7v.3l-.1.1q-.6.3-.2 1.1 0 .2-.1 0l-.7-.5q-.1 0 0 0 .1-.1.4.1.2.2.1 0-.2-.6.3-1.1l.1-.1q.3-.5.2.1m32.2 1.5q-.3.4-.4 0v-.1q.1-.3.4 0"/><path fill="#6a5133" d="M62.3 64.4v1q-.3.2-.5-.4v-.5q.2-.3.4-.2z"/><path fill="#403222" d="M62 66.8q.1.2-.1.5l-.2.3v.1q-.3.2-.2-.3l.2-.6q.1-.3.3 0"/><path fill="#25211c" d="M88.6 68.8q-.8 2.3-1.4 3.2l-.6 1.2-.5 1-3.5 5.4-.2.2q-.2.3.2.4-.8 1.4-1.6 2.1l-2.3 2.3-.5.5q-.7.6-.1.6v.1q0 .4-.4.5l-.1.1q-.3.5-.8 0h-.1q-.8.6-1.7 1.6l-.1.3q-.3.6-1 .7h-.1v-.1h-.2q-.5.5-.8.6-1.1.3-1.8 1.2l-.1.1a3 3 0 0 0-1.5.7l-.7.3h-.2l-.4.4h-.3l-1.3.8-.6.4-2.4 1-2 .8-2 .8a55 55 0 0 1-7.2 1.5l-2.5.3-3.2.3h-2.2l-1.2-.1h-2.7l-2.6-.5a38 38 0 0 1-6.4-1.5h-.2l-.9-.1-.5-.3-5.1-2.1-4.3-2.4-1.3-1-1.3-.8-2.3-1.8-.7-.8q.2 0 .3-.3l-.1-.2-1.8-1.6q-.3-.2 0-.2h.1l1.5 1 .8.7.5.2q6 3.9 13.3 6.8 1.2.5 2 .6.6 0 2.3.5 2.6.7 5.2.6.7.2 1.5.2t1.5.2l4.9.2 2.4-.1q1.5 0 2.4-.2l4.8-.8 4.9-1.3.8-.4q1 .1 1.8-.8.3-.3 1-.5l.6-.2a11 11 0 0 0 2.8-1.6l4.5-3.3q1.1-.7 2.1-1.6h.2l.3-.3q.6-.7 1.5-1.3l.2-.1.2-.2.1-.2 2-1.9a29 29 0 0 0 5.2-6l1.2-1.5.4-.7.3-.4.3-.4 1.4-3v-.1q.4-.1.3.3m-20 21.4a10 10 0 0 0-2.4 1.5l-.1.1q-.1.4.2.3l.3-.2.5-.5.7-.3q.3-.3.8-.4l.1-.1q0-.4.3-.3h1q.3 0 .3-.2L70 90l-.6-.1q-.5-.1-.8.2zm-43.8 2.1 1.4.6.7.3q.4.3 1 0 .5-.1 0-.2a12 12 0 0 1-3-1.1h-.1q-.2.2 0 .4"/><path fill="#6e6053" d="M43.9 70.2q.4-.2 0 .3l-1.2 2.2q-.2.8-.8 1.3l-.3.1q-.3 0-.1-.4.4-.4.5-1l1-2.3q0-.3.4-.2z"/><path fill="#312f2a" d="M74.6 71.8q-.6.6-1.2-.2-.1 0 0 0 .5 0 .8-.2l.3-.2q.3 0 .2.3z"/><path fill="#685b4f" d="M35 71.7q.3 0 .1.3-.6.5-.8 1.3 0 .2-.3.4v.1a3 3 0 0 1-1 1.6h-.1q-.4 0-.3-.5t.5-.6h.1V74H33v-.1l.4-1.2q.4-1 1.5-1"/><path fill="#6e6053" d="M23.3 74.6q.2 0 .1.2l-.6 1-.7 1-1.2 1.7q-.2.2-.2 0v-.2q.8-1.8 2.4-3.6z"/><path fill="#685b4f" d="m64.3 75.5.3.1.1.1q0 .4-.3 1l-.4 1.2-.2.7v.1l-.8.2h-.2q-.2-.4 0-.8l.3-.3h.1q-.2-.4.1-.8.4-.6.5-1.2zm11.4.2h.4q0 .5-.5.7h-.2q-.4-1.1 0-.8zm-.5.9q0 .4.6.3a.1.1 0 0 1 .1.2l-.5 2.5q-.2.6-.6 0l-.1-.5.1-.9.2-1.5v-.2h.1"/><path fill="#6e6053" d="M47.7 78.6a.1.1 0 0 1 0 .2l-1 2.2q-.6 1.5-1.8 2.5-.3.2-.3-.2.2-.6.6-.8v-.6q.6-1.6 1.5-3 .2-.3.4-.3zm7.9 1.1-.5 1.4-.3 1-.5.9-.5.6-.7.5q-.4 0-.2-.3l.3-.2v-.2l.8-1.9.5-1q.2-.7.8-1 .4-.2.3.2"/><path fill="#685b4f" d="m69.1 80.7-.1.5-.3 1-.3 1-.8 2q-.3.6-.5 0t.1-1.5l.4-1.2.3-1.1q.1-.8 1-1a.1.1 0 0 1 .2.1zm-32.6.6.3.2v.1l-.6 1q-.6.6-1 1.4v.2q.1.5-.5.8-.4.2-.4-.3l.2-1 1-2q.5-.4 1-.4"/><path fill="#25211c" d="M81.7 82.3q-.2.1-.2 0l.1-.2q.4-.5.2.1z"/><path fill="#685b4f" d="m61.2 84.8-1 1.5-.4 1-.9 1a.1.1 0 0 1-.2 0q-.2-.2 0-.5l1.5-3.4.1-.2h.2q1.2-.4.7.6m-34.6.3a7 7 0 0 1-1.3 2l-.2.7-.5.7q-.7.9-.6-.3l1-2q.3-1 1.2-1.4.6-.2.4.3m17.2 3.1q.5 0 .2.5l-.2.7q0 .3-.3.5l-.2.2a8 8 0 0 1-1.5 2.2l-.2.2q-.1.2-.4 0l-.1-.1V92l1.6-2.4q.3-.2.4-.6.1-.5.5-.8zM63 90q-.3.2-.2.5.2.4-.2.7v.1q.2.7-.4 1.2l-.8.4.4-1.9.6-1.4.4-.4q.8-.3.4.7H63z"/><path fill="#605449" d="m51.6 89.5-.3.5-1.6 2.6q-.2.3-.3 0-.2-.5 0-1l1.3-2a1 1 0 0 1 .9-.1"/><path fill="#685b4f" d="M34.5 90q.1.5-.3 1l-.5.6-.5 1.3-.3.4h-.5l-.1-.3a13 13 0 0 1 1.7-3l.2-.3q.3 0 .3.2"/><path fill="#312f2a" d="M69.5 89.9h.6l.1.1v.1l-.1.1h-1q-.4 0-.4.4l-.1.1q-.5.1-.8.4l-.7.3-.5.5-.3.2q-.3 0-.2-.3v-.1a10 10 0 0 1 2.5-1.5l.1-.1q.3-.3.8-.2m-44.6 2q1.4.7 3 1 .5.2 0 .4t-1 0l-.7-.4-1.4-.6q-.2-.2 0-.4z"/></g><defs><clipPath id="a"><path fill="#fff" d="M0 0h100v100H0z"/></clipPath></defs></svg>